<svg viewBox="0 65.74963999999999 450.42016806722694 133.75098" xmlns="http://www.w3.org/2000/svg" data-name="Calque 2" id="Calque_2" style="max-height: 500px" width="450.42016806722694" height="133.75098">
  <defs>
    <style>
      .cls-1 {
        fill: #cbe4d0;
      }

      .cls-2 {
        fill: #07e344;
      }

      .cls-3 {
        fill: #03b5fd;
      }

      .cls-4 {
        fill: none;
        stroke: #073a59;
        stroke-miterlimit: 10;
        stroke-width: 8px;
      }

      .cls-5 {
        fill: #073a59;
      }

      .cls-6 {
        fill: #ebfcf6;
      }
    </style>
  </defs>
  <path d="M246.65,137.46s-28.83,34.57-64.06,37.81c-47.38,4.36-72.71-27.86-72.71-27.86,0,0,21.19-45.88,72.71-47.76,35.35-1.29,64.06,37.81,64.06,37.81Z" class="cls-6"/>
  <circle r="27.15" cy="130.87" cx="185.25" class="cls-2"/>
  <path d="M83.17,107.53s3.84,12.87,16,30.87c25.13,37.19,82.88,43.5,105.3,31.36,22.41-12.14,34.79-21.68,41.17-33.86,0,0,12.24,11.01,20.04,33.11,7.8,22.1,10.83,40.17,11.57,50.71l-268.81,2.67,74.73-114.86Z" class="cls-2"/>
  <path d="M84.78,107.09s3.13,17.8,11.79,28.21c8.66,10.41,11.69,13.39,11.69,13.39,0,0,15.9-30.01,39.15-40.17,23.25-10.16,70.44-7.86,89.5,17.01,19.06,24.87,35.18,50.08,37.76,73.47l2.58,23.39,143.73-2.43L149.57,2.73l-64.78,104.36Z" class="cls-3"/>
  <circle r="7.27" cy="132.8" cx="185.25" class="cls-1"/>
  <g>
    <g>
      <path d="M190.61,132.58c-.16.05-.41.03-.59.02-.12-.02-.23-.03-.34-.04h-.39s.39-.07.39-.07c.11-.1.09-.11-.18-.08-.23.03-.54.08-.58.05-.16-.13-1.23-.04-1.32-.1l.69-.09h.09s-.06,0-.06,0c-.16,0-.22-.04-.75.1-.51.1-.75.13-.79.12-.18.03-.16.02,0-.03-.05-.06-.75.13.09-.2.07-.03,0-.02-.05-.01-.4.09-.25,0-.03-.17.37-.28.25-.37.22-.47-.02-.04.07-.16.8-.67.24-.17.54-.39.4-.36-.05.01.05-.14-.4.24-.4.33-.72.53-.68.46.08-.17-.08-.13-.1-.2-.03-.07.18-.32.95-1.1.16-.17.33-.34.61-.63-.4.23-.73.46-1.04.7.02.01.03.05.08.04.05-.01.28-.2.07.06-.14.17-.41.46-.59.63-.25.25-.34.31-.28.2.07-.13.32-.46.58-.8-.46.42-.61.53-.64.42-.09-.24-.24-.6-.61-.26-.13.13-.08-.04.35-1.39l.04-.11-.04.09c0-.15.03-.57-.23.38-.2.72-.35,1.13-.35.92-.01-.38-.21.03-.3.07-.07.02-.15.41-.12-.45,0-.27-.04-.1-.06.02-.17.78-.21.49-.36.13-.04-.12-.09-.23-.11-.02-.05.54-.15.39-.28.24-.36-.33-.44.21-.91-.15-.3-.16.06.64-.62-.04.28.63-.34.16-.24.54.05.16.28.46-.69-.3-.46-.35-.13.01-.02.12.79.78.59.72.5.81-.03.03-.3-.11-.65-.33-.07-.09-.16-.21-.58-.45-.08-.05-.18-.06-.15-.02.11.18.48.3.72.46.22.21.14.26.48.5.33.22-.7-.28-.35-.05.42.26.42.3.44.36,0,.02,0,.04,0,.06-.7-.26-1.29-.56-1.93-.83l-.09-.05.08.05c-.12,0-.68-.19-.52-.05.24.2.53.19.8.29.72.28.9.46,1.56.69-.12.05-.92-.26-1.24-.32l.07.06-.22-.08s-.12,0-.12,0c2.15.76,1.28.63,1.41.82-.84-.11-.87-.23-1.44-.34-.16-.03-.44-.08-.47-.07-.09.02.18.06.32.1.79.16-.35.09.41.24.47.09,1.06.18,1.24.26-.3.02-1.19-.17-1.27-.06-.28-.02-.53-.03-.72,0-.33,0-.29.06-.03.11q.1.11.85.15c-.31-.05-.57-.1-.82-.15l.06-.1h.69c.4.03.88.09.89.13.03.1.64.18.55.24-.11.11-.06.23.09.32.04.02-.01.04-.43.11-.6.1-.63.13-.28.1.6-.05.95-.1.34.09-.18.06-.05.04.05.03.9-.12.22.15.41.21.02,0-.19.09-.29.15-.13.07-.55.2-.48.22.01,0,.37-.16.51-.23.11-.03.32-.1.32-.09.1.15.34.18.24.44-.07.21,0,.38.36.23.13-.05.35-.21-.4.6l-.08.07.06-.05c.06.01.41-.34.21-.02-.16.27.1.07.28-.09.14-.12.23-.19.3-.23.16-.09.15-.09-.59,1.08-.21.26-.29.22-.74.89.27-.27.46-.47.72-.85.55-.7.65-.71.76-.75.17-.03.5-.67.34.1.09-.02.19-.08.27-.12.15-.37.12.07.18.17.05.09-.09,1.05-.21,1.67l-.02.09.02-.06c.05-.13.1-.23.15-.58.12-.82.2-1.68.22-.76,0,.06.02.09.03.04.1-.56.14-.5.21-.43.06.08.15.23.18-.08,0-.04.01-.04.03,0,.05.15.2.64.19.43-.04-.54.08-.16.07-.42-.04-.41.32.63.21-.02-.03-.14.1.23.18.46.1.3.18.57.24.82.06.25.13.57.22.65.05.04.02-.16-.09-.52-.38-1.26-.51-1.64-.35-1.53.15.1.34.19.37.03.02-.09.43.48.64.65l.05.05-.06-.08c-.29-.4-.49-.72-.51-.81-.01-.06.18.17.38.45l.06.09-.04-.07c.15.09.63.85.75.84l.2.26.05.09-.03-.07s-.04-.07-.06-.1l-.17-.2c-.08-.1-.16-.21-.22-.29-.73-1.05-.77-1.02.24-.04-.84-.96-1.13-1.36-.83-1.13.31.22.31.09.37.05.07-.04.19-.03.78.32.07-.19.62-.07.9-.21.31-.15.73-.33.9-.63.24-.44.6-.76,2.34-1.36,1.02.09,1.27.33,1.32.58.1.47.4,1.03.08,1.47-.04.06-.08.13-.01.21.8,1.02.09,1.77-.45,2.34-.65.72-1.19,1.44-1.8,2.16-.86.98-2.15,1.26-3.18,2.03-.8.56-1.76.31-2.64.94-.16.11-.34.06-.51.03-1.23-.14-2.51-.08-3.84-.33-.16-.03-.3-.1-.44-.19-1.07-.65-2.28-1.08-3.37-1.88-.6-.44-1.02-1.06-1.48-1.65-.67-.83-1.22-1.79-1.61-2.82-.45-1.19-.56-2.44-.79-3.74-.13-.74.18-1.45.21-2.19.02-.72.47-1.3.44-2.07,0-.26.09-.49.21-.69.65-1.05,1.06-2.28,1.88-3.32.68-.83,1.52-1.49,2.37-2.18,1.14-.95,2.6-1.32,4-1.76,2.09-.64,4.32-.37,6.39.25,1.12.35,2.43.51,3.28,1.41.61.63,1.27,1.16,1.86,1.77.59.6,1.11,1.28,1.35,2.12.21.71.56,1.33.84,1.98.29.65.13,1.44.26,2.09.12.69-.06,1.43-.25,2.1-.05.24.14.56-1.04.6-.12.1-.22.2-.61.17-.17-.01-.25-.06-.18-.12.11-.1.39-.08.62-.11.39-.43.26-.53-.83-.48-.8.04-1.66.17-2.42.19h-.09s.06.01.06.01c-.56.31-.4.62-2.07.77-.02.01-.02.03,0,.04.17,0,.35-.01.52-.02.25,0,.44.02.28.07ZM189.78,135.62v-.03s-.07-.02-.07-.02l.07.05ZM188.92,135.96l.04.02-.06-.05.02.04ZM187.99,135.39v-.03s-.06-.03-.06-.03l.06.06ZM187.92,135.62l.24.26.05.07-.03-.06s-.05-.07-.08-.1l-.19-.19-.07-.05.08.07ZM189.77,138.87s.05,0,.08-.02c-.1-.1-.21-.22-.3-.3-.04-.04-.06,0-.08,0,.12.2.22.26.3.32ZM187.51,136.3h.02s-.07-.09-.07-.09l.05.09ZM187.23,136.51c.03.05.07.12.11.17-.04-.08-.07-.16-.11-.25-.06-.12-.09-.17-.11-.16.04.08.07.15.11.24ZM187.05,137s.04.07.05.08c.04.02.03-.03-.02-.11-.01-.03-.02-.02-.03-.02v.06ZM188.2,139.71s.05.07.06.07c.05.02.04-.04,0-.13-.02-.03-.03-.01-.05-.02v.07ZM186.08,136.68v.02s-.01-.12-.01-.12v.1ZM185.89,136.96l.02.11v-.1s-.02-.02-.02-.02ZM185.61,137.05c0,.05.04.09.04.05,0-.06,0-.19-.01-.3-.01-.14-.03-.2-.04-.16-.01.1-.02.22,0,.41ZM184.97,137.34c.11.14.19-.29.26-.35v.08s0-.11,0-.11c-.08-.3-.13-.36-.26.38ZM184.45,136.98c-.05.22-.06.38-.02.33.06-.07.12-.3.17-.61.03-.18.06-.39.02-.34-.05.07-.12.4-.18.62ZM183.83,136.94v.02s.04-.11.04-.11l-.04.09ZM183.8,136.5c0,.05.09-.13.16-.33l.12-.34c.04-.1.02.05.11-.2l-.1.18c-.04.09-.08.17-.13.26-.07.15-.17.37-.16.43ZM183.28,137.23c.17-.3.31-.59.46-1-.2.32-.34.62-.46,1ZM183.22,136.21l.04-.04.05-.08-.04.04-.05.08ZM182.37,137.38l.06-.07.06-.07-.05.04-.07.09ZM179.37,139.76s-.03,0-.05-.01c-.04.03-.08.06-.11.1-.02.02-.03.07-.02.07.06,0,.13-.07.17-.16ZM182.33,136.17c-.05.07-.15.19-.15.21,0,.03.05.02.07.03.13-.13.19-.21.17-.23-.02-.02-.06,0-.09,0ZM182.43,135.74l-.08.09.08-.07h0ZM181.96,135.54h.04s.02-.05.02-.05l-.06.05ZM177.74,138.35l.02-.05-.07.05h.05ZM181.74,135.26c-.53.43-.51.51.02.19l.08-.04-.06.02c-.21.09.19-.26-.04-.17ZM181.57,134.73h.03s.04-.04.04-.04l-.07.04ZM180.54,134.39s-.03.03-.01.03c.1-.01.19-.04.23-.08.01,0-.05,0-.07,0-.05.02-.11.03-.14.05ZM180.86,134.11h0s.1-.02.1-.02l-.1.02ZM180.6,133.68c-.02.06-.05.1-.02.13.04.04.09.08.51-.05.27-.08.21-.1.04-.09-.14,0-.29,0-.53,0ZM180.73,133.33h.07c.11,0-.02.06.23.02l-.2-.02h-.1ZM180.64,133.14s-.07.02-.06.03c.01.03.08.03.17,0,.03,0,.02-.02,0-.03-.01,0-.07,0-.11,0ZM181.68,133s.04.01.06.01c.03,0,.07-.01.1-.02,0,0,.03-.02,0-.02-.09,0-.15,0-.15.02ZM177.24,131.91c-.19-.02-.32,0-.36.04,0,0,.07.03.12.04.17.03.35.04.4,0,.02-.01-.1-.05-.16-.07ZM174.92,131.52c-.26-.04-.41-.02-.37.06.03.05.17.13.3.15.18.04.36,0,.33-.06-.03-.05-.19-.11-.27-.15ZM175.81,130.98l-.07.02.09.02-.02-.04ZM180.81,131.77l-.15-.03s.02.02.05.04c.12.04.2.05.2.03,0,0-.07-.03-.1-.04ZM179.88,130.23c-.12-.07-.2-.09-.15-.04.03.03.15.09.23.14.13.07.19.08.16.05-.08-.05-.16-.1-.25-.15ZM178.33,129.34l-.14-.06s.01.04.04.06c.1.08.17.1.18.07,0,0-.05-.05-.08-.07ZM178.19,128.99v.04s.07,0,.07,0l-.07-.04ZM178.09,128.23c-.12-.07-.18-.06-.11.02.16.17.38.31.65.43-.12-.14-.28-.3-.54-.45ZM181.85,130.42l.05.05.08.07-.05-.05-.08-.07ZM181.2,129.73s-.1-.06-.1-.06c0,0,.03.04.04.06.04.03.1.08.11.09.08.04.06,0-.05-.09ZM178.75,127.77c-.08-.03-.07.01.04.11.03.02.1.06.1.05,0-.01-.02-.05-.04-.08-.04-.03-.09-.08-.11-.09ZM182.03,129.84c-.36-.3-.49-.34-.64-.38-.11-.07-.23-.15-.32-.19-.07-.03,0,.05.1.11.11.07.17.08.26.12.14.04.76.62.6.34ZM180.32,128.18s-.08-.08-.11-.09c-.11-.07-.11-.05,0,.07.03.03.08.06.1.07.02,0,0-.03,0-.04ZM177.2,125.22l.05.09-.2.16-.07-.02.09.05c.23.08.35.08.19-.19l-.06-.1ZM181.57,129.02c-.07-.05-.18-.13-.17-.11.01.08.15.24.34.43.12.12.18.16.12.08-.09-.13-.19-.27-.29-.41ZM181.94,128.48l.03.06.05.08-.02-.06-.05-.08ZM182.21,128.31l.04.08c.05.11.08.21.14.33.05.1.12.25.23.33.02.01-.05-.12-.1-.21-.08-.13-.17-.29-.26-.43l-.06-.1ZM182.46,128.26c-.05-.1-.11-.16-.1-.11,0,.04.05.13.08.2.07.11.12.17.11.12,0-.04-.04-.12-.08-.2ZM182.79,125.25s.02-.06,0-.09c-.03-.14-.07-.21-.11-.2-.01,0-.02.05,0,.09.03.14.07.21.11.2ZM183.38,126.66c.07.47.11.81.3,1.37.13-.14.15-.13-.3-1.37ZM184.25,128.13c-.05-.12-.07-.07-.05.09.02.18.07.32.11.41.05.11.07.11.05-.07-.03-.18-.07-.33-.11-.44ZM185.05,128.49c0-.13-.02-.19-.04-.14-.02.06-.04.15-.05.25,0,.08,0,.18.03.19.03.02.05-.08.06-.3ZM185.63,128.53c.02-.29.02-.36-.01-.29-.03.08-.07.15-.08.28-.03.23,0,.3.02.23.03-.06.05-.18.07-.22ZM186.26,128.67c.04-.22.12-.56.1-.68-.02-.12-.09.15-.14.38-.07.3-.12.58-.08.63.02.03.06-.08.12-.33ZM186.73,129.62l-.03.02-.02.06.04-.09ZM187.2,128.68l-.12.15-.05.1.05-.07c.05-.08.02.07.13-.18ZM187.2,129.07l-.03.03v.04s.03-.07.03-.07ZM190.21,123.88c.07-.08.07.11.19-.14l-.18.12-.07.07.07-.05ZM187.84,128.31s-.04-.04-.05,0c-.28.45-.49.88-.66,1.3.29-.49.56-.9.71-1.29ZM188.39,128.82c.1-.33-.15-.2-.28-.31-.26.68.09.35.28.31ZM190.5,126.84c.07-.1.06-.13-.02-.08-.03.02-.09.08-.11.11-.07.1-.06.13.02.08.04-.04.09-.08.11-.11ZM188.78,129.59l.05-.12c.25-.41-.28.09-.54.33-.33.29-.67.64-.76.84.49-.48.93-.94,1.3-1.17-.02.05-.23.24-.04.11ZM188.74,129.86s.09-.09.09-.09c0,0-.02,0-.05.02-.11.07-.16.13-.13.13,0,0,.06-.04.09-.06ZM191.6,129.27s-.08.06-.09.07c0,.02.02.01.03.02.04-.02.09-.05.12-.07.1-.09.08-.09-.06-.02ZM188.98,130.41c.35-.29.2-.29-.07-.21-.25.28-.46.47-.19.36.04-.01.22-.12.26-.16ZM187.74,131.52l.09-.05c.19-.11.39-.23.56-.33.17-.11.31-.22.06-.11-.2.09-.43.23-.52.31-.08.07-.09.1-.14.15l-.07.04ZM194.32,128.38c.05-.06.12-.12.16-.17.06-.08,0-.09-.12-.03-.07.03-.14.12-.15.15,0,.03.07.03.11.05ZM189.07,131.19c.12-.09.1-.12-.08-.08-.08.02-.23.09-.25.12-.05.06.14,0,.33-.04ZM190.81,130.49c-.16-.04-.35,0-.7.13-.02,0-.1.08-.08.09.06.04.35-.07.78-.22ZM188.27,131.71s.03-.02.01-.02c-.09.02-.18.05-.21.08-.01,0,.04,0,.06,0,.05-.02.11-.04.14-.05ZM186.96,132.42l.07-.02h-.08s.01.02.01.02ZM189.27,132.05c-.07-.14-.58-.07-1.34.1l-.09.02h.06c.62-.13.87-.11,1.38-.12Z" class="cls-5"/>
      <path d="M186.94,132.59c-.07,0-.22.01-.36.03-.17.02-.33.04-.34.05-.01.01.21-.01.47-.04.14-.02.35-.04.23-.04Z" class="cls-5"/>
      <path d="M194.87,132.7s-.02-.08-.09-.1c-.2-.03-.3.02-.35.07-.06.05-.07.1.1.13.29.02.33-.04.35-.1Z" class="cls-5"/>
      <path d="M189.91,132.68c-.16,0-.33,0-.42.02,0,.03.14.04.32.04.1,0,.26,0,.3-.02.11-.03-.06-.04-.21-.05Z" class="cls-5"/>
    </g>
    <g>
      <g>
        <path d="M84.35,102.88c-.02-.27,0-.13.03.05.02.14.04.29.06.44l.05.27v.27c.07.71.08.8.09.71,0-.08,0-.29.04,0,.2,1.2.49,1.93.76,3.11l-.17-.36-.03-.1.03.12c.09.34.21.87.19.38.07-.07.14.19.3.7.08.17.13.33.14.49.35,1.15.82,2.28,1.05,3.41.02.1.12.36.2.51.25.53.47,1.06.65,1.6.2.53.41,1.06.58,1.58.5,1.63,1.29,3.19,2.03,4.75.35.69.55,1.14.08,1.06-.15-.03-.28.07,0,.49.12.18.28.65.42.37.12-.24.51.13.68.51.37.89.94,1.66,1.42,2.48.5.83.44,1.06-.11,1.2-.12.03-.22.1-.4.19.61.67,1.24,1.2,1.83,1.75-.14-.21-.28-.44-.44-.64-.18-.24-.51-.46-.47-.71.03-.17.23-.23.41-.18.26.06.55.39.72.74.2.43.12.69-.02.9.75.53,1.3,1.21,1.95,2.11.78,1.12,1.53,2.27,2.41,3.33.43.54.86,1.07,1.31,1.59.47.5.97.99,1.48,1.46.8.72.78.88.05,1.52h-.11s.12.03.12.03c.22.4.45,1.08.82.47.28-.46.73-.42,1.11.18.68,1.06,1.7,1.71,2.6,2.49.56.51,1.33.8,1.25,1.64-.03.27.27.37.49.45,1.42.45,2.28,1.49,3.09,2.6.27.35.51.66.98.83,1.22.43,2.18,1.43,3.02,2.2.57.54,1.17,1.05,1.78,1.53.62.48,1.28.91,1.91,1.36,1.27.92,2.58,1.75,3.73,2.8,1.25,1.16,3.21,1.3,4.1,2.9,1.83.25,2.98,1.8,4.72,2.27.69.2,1.83.36,1.69,1.61-.07.59.63.41.83.33,1.35-.54,2.44.13,3.57.69.46.21.47.52.33.9-.4-.05-.81-.08-.83.43,0,.1.25.29.4.31.73.1.29-.48.44-.72.68-.04,1.35.27,2.04.12.64-.15.41.96.92.73.59-.27,1.08-.14,1.62.02.18.05.35.11.62.19-.09.75-.74,1.21-.97,1.85l-.12.07.13-.04c.3.22.23.82.7.79.69-.05.11-.55.19-.83.2-.74,1.18-.63,1.37-1.3.93.43.2,1.08.51,1.52h.27s-.17.18-.17.18c.1.07.29.2.29.2,1.51-1.9,3.03-.46,4.61-.22,0,.88-.97.66-1.14,1.21-.05.16-.08.44,0,.49.24.15.27-.12.34-.25.4-.72.93.6,1.41-.07.29-.42.59-.96,1.27-.97.41.42-.65,1.06.28,1.39-.02.29.03.56.22.8.16.38.42.39.74.19q.72.06,1-.66c-.39.23-.7.43-1.02.62l-.67-.2-.23-.77c.05-.41.32-.82.67-.75.89.16,1.76-.27,2.59,0,1.32.47,2.69.58,4.06.72.36.03.51.11.55.54.06.62.21.69.53.38.56-.53,1.05-.84,1.65-.1.18.22.28.09.42.01.67-.37,1.33-.31,1.99-.2.66.1,1.32.3,1.98.28.13,0,.28.23.42.36.18.16-.14.56.27.55.08,0-.05-.4-.24-.57.15-.1.3-.3.44-.29,1.11.1,2.23.02,3.34.06,1.11.05,2.23.02,3.35.1,1.88.12,3.71.22,5.51-.31.69-.18,1.51-.49,1.83.53l-.06.11.1-.08c.51-.07.84-.56,1.55-.27.58.25,1.27-.12,1.85-.43.43-.22.9-.4,1.37-.53,1.13-.31,1.14-.29,1.38.95-.28.34-1,.45-.84,1.18.44-.41.79-.71.9-1.15.69-.91,1.94-1.12,2.9-1.4,1.48-.39,2.87-1.3,4.55-.92l3-.94c.86-.59,1.96-.42,2.89-.66.8-.19.76.65.68,1.23l-.04.1.09-.08c.23-.2.49-.38.47-.67-.04-.71-.1-1.42,1.27-1.08.09.02.29-.02.35-.08.59-.67,1.43-.87,2.25-1.11.82-.25,1.68-.46,2.34-.97.09-.07.23-.12.34-.14.61-.1,1.59-.09,1.77-.32.45-.59,1.2-.67,1.67-1.07.76-.66,1.96-.38,2.66-1.2.15-.17.42,0,.53.12.14.17.13.39.04.62-.08.23-.2.54.3.38.25-.08.41-.3.39-.58-.06-.98.31-1.49,1.67-2.09,1.31-.6,2.66-1.16,3.82-2.02.75-.51,1.35-.41,2.02-.66l.11-.03h-.09c-.26-.18-.23-.45.19-.76.31-.23.53-.17.62,0l-.02.09.05-.09c.57-.26.33.5,1,.08.05.04.08.09.1.15l-.03.1.07-.11s.05-.09.03-.11c-.04-.03-.1-.04-.15-.06-.04-.05-.13-.08-.13-.15.05-.92.14-.95,1.48-1.03-.51-.46-.02-1.11.79-1.47,1.64-.68,2.86-2.38,4.44-2.9,1.48-1.2,2.84-2.42,4.22-3.68.86-.75,1.59-1.61,2.35-2.45.75-.86,1.55-1.68,2.24-2.6.95-1.32,1.97-2.62,2.89-3.95.85-1.37,1.69-2.71,2.42-4.04-.21.39-.62,1.22-1.07,2.11-.44.85-.85,1.73-1.29,2.58-.49.82-.99,1.65-1.51,2.47-.14.22-.3.47-.41.68-.64,1.34-1.55,2.53-2.4,3.78-.45.61-.87,1.24-1.35,1.82-.5.56-1,1.13-1.49,1.69l-1.76,2-1.88,1.88-1.87,1.89-1.98,1.77c-3.49,3.27-7.61,5.7-11.5,8.41-1.43.9-2.93,1.7-4.41,2.51-1.52.75-3.04,1.46-4.47,2.41-.5.33-1.1.55-1.68.74-4.2,1.58-8.35,3.3-12.67,4.6-.52.16-1.06.29-1.6.41-2.1.52-4.22.86-6.32,1.34-1.05.24-2.11.48-3.17.64l-3.2.53c-.6.09-1.19.19-1.79.25l-1.8.11c-1.2.07-2.41.13-3.61.22-1.72.14-3.47.1-5.21.15-1.74-.07-3.48-.08-5.22-.23-3.96-.28-7.85-1.03-11.77-1.63-2.18-.4-4.32-1.14-6.46-1.71-2.04-.47-3.92-1.43-5.98-1.85-.68-.13-1.33-.43-1.97-.71-.83-.38-1.67-.73-2.51-1.06-.83-.37-1.66-.72-2.5-1.07-1.69-.67-3.31-1.46-4.95-2.25-1.33-.68-2.61-1.45-3.91-2.19-1.28-.77-2.53-1.58-3.82-2.33-3.35-2.12-6.44-4.66-9.44-7.23-4.45-3.73-8.3-8.13-11.78-12.75-.95-1.28-1.91-2.56-2.83-3.86-.87-1.35-1.77-2.65-2.45-4.09-2.09-4.1-4.18-8.22-5.36-12.64-.29-.94-.5-1.93-.79-2.88-.13-.48-.28-.96-.4-1.45-.11-.49-.22-.98-.32-1.46-.46-1.94-.62-3.88-.89-5.82-.08-1-.15-2.01-.23-3.02-.03-1-.01-2.01-.03-3-.04-.72.04-1.75.1-1.61.02-.29.03-.64.04-.47,0,.08.01.29,0,.49-.01.33-.03.2-.04.21-.06,1.35.01,1.64.14,2.03.11.28.21.24.36.7l.02.07-.02-.1c-.03-.58-.11-1.3-.17-1.92-.04-.62-.04-1.14-.01-1.3,0-.09-.02-.17-.03-.26-.01-.02-.02-.02-.03-.07-.02-.08-.04-.28-.06-.55ZM234.7,148.98l.08-.1-.09.06v.04ZM230.76,152.35l.1-.06-.02-.03-.08.09ZM229.28,152.98s.06-.06.09-.09l-.1.05v.05ZM227.77,154.17s.08.09.11.14l-.05.09.07-.1s.05-.09.03-.1c-.04-.03-.1-.04-.15-.06l-.12.04h.11ZM225.87,158.11c.08-.02.18-.11.28-.18-.12,0-.23-.04-.37-.02-.06,0-.18.1-.25.15,0,.16.2.09.35.05ZM222.86,157.82l.09-.04-.06-.04-.03.09ZM220.57,159.33s.11.03.18.05c.02-.08.06-.15.06-.23,0-.1-.06-.1-.19-.03-.02.07-.07.16-.05.21ZM218.19,160.94c.05,0,.1,0,.15-.02.16-.06.21-.13.13-.16-.02,0-.1.04-.16.06l-.13.11ZM219.14,162.61s.1,0,.15-.02c.16-.07.21-.14.13-.17-.02,0-.1.04-.16.07l-.12.12ZM212.22,163.54l.09-.03-.06-.07-.03.09ZM210.52,164.51l.06.07.03-.09-.08.02ZM208.44,165.41s.24-.03.28-.08c.06-.07.05-.18.03-.25-.03-.1-.14-.11-.25-.03-.12.13-.21.27-.06.36ZM204.02,167.32c.82-.17,1.15-.64,1.65-.86l.13.02-.1-.05c-.7,0-1.27.13-1.67.9ZM199.97,168.38c.02.19.17.28.37.18.29-.15.42-.38.34-.63-.04-.14-.17-.29-.37-.19-.3.14-.26.43-.34.64ZM195.42,169.74h.09s-.05-.1-.05-.1l-.04.1ZM193.9,169.68c.21,0,.26-.19.18-.36l-.15-.29c.04-.1.36-.03.22-.24l-.25.23c-.06.1-.14.19-.16.29-.04.15-.05.38.16.38ZM192.61,170.74c.17-.35.21-.65-.09-.98-.37.42-.29.71.09.98ZM188.61,170.7l.09-.07.05-.09-.09.07-.05.09ZM188.06,172.12l.09-.1.08-.09-.11.07-.05.12ZM183.82,176.22s-.11.02-.16.04c-.02.05-.06.1-.05.14,0,.02.1.06.14.05.15-.06.18-.15.08-.23ZM182.84,171.94c.06.08.11.22.18.22.17,0,.35-.04.5-.07.06-.18,0-.27-.15-.25-.18.01-.35.06-.53.1ZM181.17,171.71l.04.11.05-.11h-.09ZM177.51,172.18l.11-.04-.12-.04v.08ZM175.78,177.11l-.12-.04v.08s.12-.04.12-.04ZM174.76,172.25c.4.66.81.67,1.24.07l.1-.08-.13.06c-.4.22-.79-.28-1.21-.04ZM170.52,172.13l.12-.02-.11-.06v.08ZM165.29,172.65s.11.05.14.03c.14-.08.15-.18.02-.24-.04-.02-.1.03-.16.05,0,.05-.03.11,0,.15ZM164.12,172.16h.08s-.03-.1-.03-.1l-.06.1ZM160.77,171.89c.4.08.63.15.86.16.31.02.7.03.55-.44-.09-.3-.37-.28-.62-.14-.21.11-.43.23-.79.42ZM158.49,171.34l.12-.04c.08-.1.34.09.32-.17l-.34.13-.09.08ZM157.07,171.16c.05.03.1.09.15.09.19.02.24-.04.12-.15-.04-.03-.12-.04-.18-.04-.04,0-.07.06-.1.09ZM156.71,170.03c.05,0,.12-.02.17-.03-.03-.04-.06-.08-.08-.12-.06-.01-.13-.05-.18-.03-.13.07-.1.14.08.17ZM150.24,173.14c-.04.19.03.34.23.42.03.01.12-.04.15-.08.08-.16.1-.34-.09-.44-.06-.03-.18.06-.28.1ZM149.2,175.29c-.09.25,0,.42.23.43.16,0,.38-.09.46-.21.11-.16-.01-.38-.23-.39-.16-.01-.33.12-.46.17ZM147.15,173.91l.09.09.05-.08h-.14ZM147.43,168.72v.16c.06,0,.14.02.18,0,.15-.08.13-.17-.03-.22-.04-.01-.1.04-.15.07ZM140.05,167.64c-.09.11-.04.22.1.2.09-.01.18-.11.23-.2.08-.13.04-.2-.08-.21-.09.07-.18.13-.25.21ZM138.85,169.04v.16c.05,0,.12.03.17,0,.15-.06.15-.15-.02-.22-.04-.02-.1.03-.15.05ZM137.77,168.88l.12.03-.07-.09-.05.07ZM135.23,168.31c-.03.13.1.24.24.19.3-.11.44-.33.4-.66-.32.05-.57.17-.64.46ZM135.67,163.85l.13-.02.12-.05-.13.02-.11.06ZM134.12,164.14s0,.12.02.13c.05.02.11,0,.17,0,.03-.04.09-.09.07-.12-.08-.13-.18-.14-.27-.02ZM132.52,166.74c.08.13.18.14.27.02.02-.03,0-.12-.02-.13-.05-.02-.11,0-.17,0-.03.04-.09.09-.08.11ZM131.6,162.16c-.07.47.26.77.56,1.07.06.16.09.34.19.49.08.12.22.07.18-.07-.05-.16-.19-.3-.29-.44-.31-.3.2-.95-.63-1.05ZM130.29,164.04s-.05.1-.03.14c.05.17.14.19.22.06.02-.03,0-.11-.03-.15-.03-.03-.1-.04-.16-.06ZM128.29,167.63l.14-.03.71.43.07.1v-.11c-.17-.33-.39-.54-.78-.43l-.13.04ZM129.58,162.09c.07.12.1.28.18.3.28.08.49-.04.62-.26.08-.14.03-.24-.1-.21-.23.04-.46.11-.7.17ZM126.02,160.29h.12s.11-.04.11-.04h-.13s-.11.04-.11.04ZM124.35,159.25l.13-.02c.18-.01.37,0,.55-.04.15-.03.39-.06.22-.3-.03-.04-.24,0-.34.04-.16.07-.29.18-.44.27l-.11.05ZM123.12,158.4c-.1.06-.06.18.09.21.1.02.21-.02.32-.03.08-.09.05-.19-.09-.22-.1-.02-.23,0-.31.04ZM115.2,155.73c-.06-.01-.14-.05-.17-.03-.11.07-.1.17.03.26.04.03.13.05.16.03.11-.07.1-.17-.02-.27ZM115.48,154.29c.55-.1,1.06-.08,1.34-.51-.98-.62-.98-.62-1.34.51ZM114.11,151.44c.07.19.23.27.41.24.2-.04.16-.22.11-.38-.06-.18-.19-.28-.39-.25-.15.08-.18.22-.12.39ZM110.14,147.68c-.07.08-.04.17.1.23.16.07.33.12.49.16.13.02.14-.06.02-.18-.19-.18-.39-.25-.61-.2ZM106.84,144.63c-.14.17-.12.27.02.34.16.08.37.2.48.16.19-.07.06-.25-.11-.35-.15-.09-.32-.12-.39-.15ZM103.31,141c-.07.17-.23.35-.08.63.15.29.36.21.5.11.18-.13.27-.33.02-.63-.13-.16-.28-.21-.45-.11ZM99.42,135.8l.1.09-.03-.11-.07.02ZM98.71,136l.3.19h.1s-.1-.04-.1-.04c-.1-.02-.19-.31-.29-.15ZM98.1,134.85l.09.08-.05-.11-.04.03ZM94.55,136.27c-.09-.03-.19-.34-.28-.18l.28.2.1.04-.1-.07ZM96.74,134.08c0,.06.19.26.21.25.35-.08.52-.32.36-.99-.27.22-.63.22-.57.74ZM94.05,130.01c.25.77.81,1.34,1.46,2.28-.33-1.16-1-1.65-1.46-2.28ZM91.79,129.22c-.02.1.03.2.13.27.03.02.08.02.09,0,.02-.1-.03-.19-.13-.27-.03,0-.08-.02-.09,0ZM91.38,125.21l.13.34c.2.8.54.68.77.75.3.08.51-.04.15-.82-.25.22-.43.53-.92.08-.04-.12.06-.21-.14-.35ZM90.88,124.06s-.03.05-.02.07c.02.05.06.11.09.13.1.07.11.02.03-.12-.02-.04-.06-.06-.1-.08ZM87.25,118.48s.02-.06.01-.1c0-.04-.04-.1-.06-.15-.01.02-.03.02-.03.05,0,.13.02.21.08.2ZM89.02,120.07c0,.43.23.86.63,1.48-.11-.59-.17-1-.49-1.44-.04-.06-.14-.08-.14-.04ZM88.34,117.05v.07c-.04.12-.08.22-.09.38,0,.16.02.42.19.59.15.14.19.02.13-.23-.05-.22-.14-.47-.22-.71v-.1ZM85.84,116.99c0,.09,0,.18,0,.29.01.15.06.28.1.26.02-.01.02-.16,0-.25-.02-.09-.07-.19-.1-.29ZM86.99,114.7c.04.3.16.57.3.8.06.1.1.05.06-.08-.09-.32-.25-.51-.36-.72ZM86.43,114.66c.17.54.35.79.48.85,0,0-.03-.21-.07-.3-.15-.36-.23-.41-.41-.55ZM86.69,112.95s.03.11.04.14c.06.12.09.12.06,0,0-.04-.04-.09-.06-.14-.01,0-.03-.01-.03.01ZM85.72,108.7v.06s.03.05.03.05l-.03-.11ZM85.11,107.68c.22,1.18.46,1.57.62,1.68l.03.06-.04-.1c-.17-.25-.44-.94-.61-1.64Z" class="cls-5"/>
        <path d="M84.94,105.43c.04.14.09.28.11.32.03.05.02-.08-.03-.28-.08-.32-.12-.38-.14-.39,0,.06,0,.11.06.35Z" class="cls-5"/>
        <path d="M84.22,101.85c0,.11,0,.26,0,.35,0,.14,0-.05,0-.22,0-.17,0-.3,0-.47,0,.18,0,.23,0,.35Z" class="cls-5"/>
        <path d="M84.32,102.34c.01.07.02.13,0-.11-.02-.16-.03-.24-.04-.37,0-.01,0,.02,0,.09.02.18.03.26.04.39Z" class="cls-5"/>
      </g>
      <g>
        <path d="M276.6,220.99s0-.05,0-.05c-.16-2.21-.27-4.45-.65-6.43-.05-.13-.1-.21-.15-.64-.01-.11-.02-.3,0-.31.05-.01.1.36.15.66.02-.37,0-.88-.08-1.56-.07-.65-.15-.83-.25-.97-.12-.17-.1.16-.06.71.03.33.07.67.1,1.01.1.86.09,1.23.02,1.24-.09,0-.21-.78-.34-1.45-.27-1.51-.62-3.01-.88-4.53-.25-1.51-.57-3.01-.93-4.5-.25-1.03-.1-1.23.08-1.46-.65-1.63-1.28-3.13-1.58-5.41-.25-1.54-.93-3.45-1.49-5.17-.16-.48-.48-1.04-.53-1.41-.27-2.32-1.5-4.49-2.03-6.75-.45-1.74-1.24-3.38-1.92-5.03-.38-.89-.52-1.44-.01-1.51.49.95.57.19.85.25.58.56.58.56.84.09-.35-.32-.55-.06-.84-.12l-.19-.48c.02-.19.06-.36.04-.57-.01-.18-.14-.29-.15-.13-.02.18.04.43.06.65l-.61.29-.38-.96.04-.57v-.14s-.03.11-.03.11l-.03.58c-.76-.24-.83-.39-.99-1.8l.11.1-.11-.12c-.37-.43-.8-.81-.69-1.49.05-.31-.17-.54-.35-.76l-.39-.23c0-.41.21-.16.39,0,.03-.61-.3-1.09-.68-1.49-.91-1-1.38-2.25-1.93-3.51-.32-.69-.39-1.08-.09-1.3.34-.26.7.2,1.02.78.16.3.31.6.48.92.34-.21-.11-1.25.45-1.27.86,1.34,1.37,2.85,1.78,4.37.58.56.85,1.25.85,2.05.72.83,1.02,2.25,1.98,3.29-1.44-3.05-2.31-5.91-3.53-8.67-.71-1.7-1.69-2.61-2.81-2.71-.78-.08-2.52-2.02-3.07-3.12-.85-1.85-1.41-3.84-2.89-5.43-.1-.11-.23-.32-.24-.44-.17-1.81-1.28-3.06-2.66-4.15-.57-.45-.23-.75-.2-1.13.05-.61.42-.48.8-.11,1.1,1.03,2.1,2.14,3.26,2.91-.05-.22-.34-.66-.03-.59.25.06.28.44.27.68.07.14.12.27.17.41.56,1.73,1.43,3.26,2.68,4.58.09,1.15.7,1.96,1.42,2.71-.38-.94-.64-1.95-1.36-2.7.03-.25.15-.47-.06-.81-.82-1.33-1.52-2.77-2.66-3.78.39-1.12-.71-1.97-1.31-2.9-.11-.17-.26-.2-.29-.05-.32,1.5-.91-.02-1.42-.57-.66-.75-1.25-2.07-2.04-1.22-.13.14-.33-.14-.51-.28-.75-.6-1.29-1.49-2.07-2.11-.66-.52-.18-1.04-.21-1.57-.64-.45-1.24-1.06-1.93-1.35-.19-.08-.35-.35-.31-.57.02-.11.1-.23.19-.25.64-.17,1.98,1.14,2.28,2.23.77.33,1.01-.18,1.2-1.31.67,2.08,1.31,3.4,2.81,3.76-.18-.58-.93-1.09-.73-1.68l.14.07-.14-.1c-.35-.36-1.02-.88-1.02-1.05.07-2.06-1.44-1.77-2.31-2.38.09-.76-.28-1.41-.74-2.03-.48-.61-1.07-1.17-1.4-1.83-.11-.22-.4-.15-.53-.06-.18.12-.04.37.12.58.87,1.09,1.7,2.2,2.51,3.33-.53.38-1.1.58-1.93-.41.21-.5.1-1.01-.71-1.6.26.6.46,1.08.65,1.58-.37.26-.68,1.03-1.23-.38-.25-.61-.71-.89-1.18-1.16-1.45-.78-1.42-.78-1.38-2.37.66.04,1.12,1.04,1.9,1.03-.08-.79-.56-1.36-1.32-1.6-.51-.17-.83-.31-.84-.89l.16.04-.16-.06c-.46-.71-.89-1.44-1.37-2.13.09-.15.15-.32.28-.43.79-.7.75-.96-.35-1.9-.6-.48-1.2-.95-1.8-1.43-.75-.64-.23-.86.02-1.16.14,0,.42.24.36-.1l-.38.03c-.7-.49-1.48-.86-2.17-1.34-.71-.47-1.34-1.06-1.76-2.05-.32-.76-1.39-.68-1.52.18-.04.26.01.53-.22.66-.25.14-.67.22-.21.73.26.29.52.21.81.2,1.36-.04,2.8.93,2.74,2.17-.05,1.43,1.06,1.51,1.76,2.35-.14-.66-.81-.92-.83-1.55,1.12.57,2.24,1.04,2.06,2.48l.04.15v-.14c.65-.2.65-.2,1.06,1.1-.09.36-.21.7-.25,1.09-.05.42-.08.82-.59.73-.46-.08-1.01-.49-1.09-.87-.15-.66-1.7-1.32-.65-2,.36-.24-.18-.37-.35-.29-.39.17-.77.04-1.2-.33-.06-.02-.12-.03-.18-.07-.02-.01-.04-.11-.02-.11.04-.02.11,0,.16,0-.17-.27-.3-.58-.53-.8-.52-.52-1.25-.94-.51-1.51.3-.23.27-.94-.45-1.27-.57-.27-.95-.23-.7.61.13.43-1.17.27-1.51-.34-.31-.55-.69-1.03-1.11-1.48-.44-.43-.92-.82-1.4-1.2-.97-.77-1.98-1.49-2.8-2.39-.73-.23-1.37-.58-1.98-.99-.62-.39-1.2-.85-1.77-1.33-1.13-.97-2.32-1.91-3.69-2.49-.75-.32-2.29-.62-2.31-2.03,0-.2-.58.07-.89.12.01.05.05.13.02.15-.07.07-.16.02-.22-.14-.43-.27-.92-.49-1.16-.9-.46-.73-1.21-1.22-1.98-1.32-2.02-.19-3.34-1.46-4.9-2.48-.84-.59-2.26-.22-2.77-1.08-.62-1.06-1.64-.06-2.27-.95-.59-.81-1.69-1.12-2.81-1.14-.94.02-1.92-.57-2.87-.44-.06.01-.11.03-.17.03-.01,0-.07-.08-.06-.09.04-.03.09-.05.14-.07-.54-.58-1-.88-2.09-1.07-2.82-.52-5.7-1.09-8.5-1.74-1.45-.29-2.89-.45-4.33-.55-.6-.05-1.2.01-1.78-.03-.58,0-1.13-.13-1.63-.57-.09-.08-.52-.09-.69-.03-.71.27-1.45.3-2.2.27-.75-.03-1.52-.15-2.26-.07-.6.07-1.71.55-2.03-.36-.02-.06-.36-.13-.39-.11-1,.77-2.39.28-3.53.58-1.01.3-1.98.69-3.06.25-.19-.08-.63.06-.95.14-.16.04-.3.16-.45.18-4.28.52-8.31,2.02-12.48,3.27-2.12.64-4.44,1.25-6.39,2.59-.45.32-1.01.61-1.54.84-.86.34-1.68.73-2.49,1.15-.81.42-1.65.85-2.41,1.47-.72.56-1.51,1.08-2.3,1.6-.78.55-1.56,1.1-2.33,1.65-.82.56-1.55,1.24-2.33,1.84l-1.16.93-1.13.96c-3.5,2.9-6.73,6.17-9.77,9.59-1.16,1.24-2.19,2.58-3.29,3.87-1.04,1.34-2.08,2.71-3.1,4.13.53-1.18,1.39-2.22,2.22-3.5-.71.87-1.21,1.66-1.76,2.48-1.59,2.53-3.14,5.06-4.43,7.58l-.12.23c-.17.32-.26.51-.42.81.15-.3.28-.59.45-.92l.81-1.66c.91-1.95,2.01-3.8,3.04-5.7,1.13-1.83,2.21-3.7,3.48-5.44.44-.62.74-1.16,1.11-1.75l.07-.16s.07-.07.07-.07c0,.03-.03.08-.04.13,2.48-3.25,5.01-6.51,7.89-9.45,2.49-2.45,4.98-4.94,7.75-7.08,1.43-1.19,2.99-2.21,4.51-3.29,1.57-1,3.13-2.04,4.76-2.98,1.04-.65,2.11-1.36,3.23-1.98,1.1-.65,2.29-1.13,3.55-1.3.64-.59,1.41-1.01,2.24-1.32.82-.33,1.68-.62,2.51-.92.68-.23,1.37-.46,2.06-.61.77-.18,1.33-.45,1.79-.87-2.17.31-4.29,1.03-6.28,1.97-.84.38-1.64.63-2.46.93-.14.18-.33.27-.57.28-.13.1-.25.21-.39.3-.28.19-.63.43-.84.28-.19-.13.08-.38.42-.55.33-.17.65-.21.92-.18.13-.03.26-.08.38-.14.7-.63,1.56-1.09,2.46-1.48.9-.39,1.83-.77,2.73-1.08,4.36-1.7,9-2.6,13.58-3.65.27-.06.54-.13.81-.15.68-.05,1.72-.35,1.75.27.02.57-.85.51-1.61.6-1.7.16-3.37.54-5.05.85-1.66.41-3.32.78-4.94,1.3-.32.1-.6.31-.9.46,1.24-.25,2.51.12,3.7-.77,1.31-.14,2.6-.43,3.91-.65l1.95-.38c.66-.09,1.31-.18,1.97-.24,1.21-.14,2.47-.05,3.73-.05,1.26-.04,2.52-.05,3.76-.47.66-.23,1.59-.13,2.4-.1,3.44,0,6.81.61,10.25.86,1.27.12,2.53.83,3.9.64-.25-.36-.58-.81-1.14-.81-1.99.08-3.85-.88-5.84-.75-.56.03-1.41-.1-1.4-.65.02-.55.79-.5,1.44-.42,1.41.16,2.81.33,4.2.59,1.4.21,2.78.51,4.16.84.94.22,1.87.43,2.81.65.93.22,1.88.38,2.81.61.79.18,1.59.48,2.34.79.46.19.61.55.38.84-.17.21-.53.21-.9.09l-3-.92-3.02-.82c-1.03-.29-1.96-.32-2.76.03,1.02.55,2.09.73,3.25.84,1.55.1,3.02.41,4.41,1.34.43.28.94.54,1.49.74.54.22,1.13.38,1.73.42.71.06,1.39.32,2.05.6.26-.03.47.06.64.26,1.32.56,2.66,1.1,3.95,1.74l1.95.92,1.91,1,.18-.35c-2.86-2.03-6.19-3.28-9.47-4.53-.69-.25-1.88-.27-1.65-1.09.18-.66,1.2-.39,2.01-.08,3.6,1.42,7.24,2.88,10.47,4.96,1.25.76,2.48,1.52,3.76,2.19,1.25.71,2.49,1.44,3.71,2.2,1.08.73,1.9,1.62,2.98,2.34,5,3.49,9.6,7.52,13.81,11.88.56.58,1.07,1.21,1.58,1.84.49.65.97,1.3,1.5,1.93,4.9,5.78,9.24,11.94,13.25,18.29.76,1.21,1.25,2.55,2.11,3.73.57.78.8,1.64-.3.97-.16-.09-.16.03.41,1.11.44-.23.89.1,1.28.84,1.01,1.84,1.89,3.76,2.81,5.65.84,1.93,1.73,3.83,2.45,5.8.36.96.77,1.9,1.17,2.83.37.95.74,1.9,1.06,2.87.58,1.67,1.2,3.36,1.51,5.09.07.4.22.88.37,1.27.78,1.97,1.37,4.01,1.81,6.08.48,2.06.86,4.14,1.31,6.2,1.24,5.72,2.02,11.54,2.51,17.35.17,2.2.31,4.39.35,6.58.1,2.18.07,4.36.09,6.53,0,.37,0,.68.01,1.12-.02-.97-.07-2.31-.15-2.87-.03.13.06,1.34.05,1.52ZM118.49,132.74l-1.73,2.39c.57-.81,1.22-1.42,1.73-2.39ZM123.67,126.47l-.08.14c-.27.31-.55.62-.87,1,.47-.28.69-.63.9-1.01l.06-.12ZM128.14,122.82s-.05-.01-.08-.02c-.05.05-.13.12-.15.16-.08.15-.02.16.14.01.04-.04.09-.12.1-.15ZM128.33,121.82c-.51.41-1.02.82-1.43,1.56.59-.41,1-.82,1.37-1.25.14-.16.24-.34.06-.31ZM130.07,121.04l-.08.12-.03.1.08-.12.03-.09ZM130.47,119.89s-.13.06-.17.1c-.15.15-.16.22-.01.18.02,0,.1-.1.16-.15.01-.04.05-.11.02-.12ZM133.81,118.2c0-.11-.1-.07-.24.08-.04.04-.05.11-.03.13.01.01.09-.03.14-.05.04-.05.12-.13.13-.16ZM134.56,116.53c-.28.07-.52.28-.73.51-.14.16-.26.36-.02.29.14-.05.39-.25.56-.4.19-.16.32-.33.19-.4ZM136.57,115.78c-.18.05-.27.16-.25.25,0,.02.1.01.14-.02.06-.04.1-.11.16-.16-.02-.03-.01-.09-.05-.08ZM139.97,113.9l-.08-.04-.03.09.11-.06ZM140.17,112.56c-1.11.43-1.67,1.14-2.2,1.83l-.04.1.09-.11c.35-.3.81-.54,1.21-.82.41-.27.78-.56.93-1ZM145.08,109.5c-.97.69-1.81.94-2.47,1.61.45.03.8.13.43.6-.28.17-.55.36-.83.54-.25.16-.7.28-.61.5.11.24.58.02.88-.25.27-.25.43-.53.65-.79.89-.63,1.3-1.28,1.95-2.23ZM146.99,108.78c-.19.05-.34.06-.46.12-.25.14-.38.3-.32.43.07.14.26.13.47-.08.14-.15.2-.31.31-.47ZM148.55,109.48l-.11.1-.05.1.11-.1.05-.1ZM148.42,108.01l-.15.03v.06s.15-.09.15-.09ZM151.12,106.8c-1.3.31-.86.83-1.12,1.25-.12.15-.29.31-.36.46-.06.12.14.12.25-.01.12-.14.13-.3.18-.44l1.21-.78-.19-.11.33-.07c.18-.26.13-.4-.31-.3ZM153.98,107.51c.02-.12-.15-.21-.34-.43-.81.68-.44.92-.05,1.39.2-.47.35-.72.39-.96ZM155.58,105.17c-.79.17-1.5.36-1.88.95.87-.09,1.4-.44,1.88-.95ZM157.49,105.66c-.1-.11-.25-.19-.37-.27-.25,0-.36.09-.26.18.1.1.23.21.41.26.16.04.31-.07.22-.17ZM159.73,103.95l-.14.07h.16s-.01-.07-.01-.07ZM162.17,103.41c-.15,0-.3-.03-.44,0-.15.02-.29.11-.44.17.14,0,.29,0,.44-.01.14-.05.29-.1.44-.15ZM165.71,104.56l-.15.04.15.02v-.07ZM164.56,102.95c.97.19,1.81.59,2.57.99l.14.05-.1-.08c.2-1.59.19-1.63-2.61-.96ZM172.91,103.88l-.16-.04v.09s.16-.05.16-.05ZM173.85,102.43c-.2-.33-.4-.61-.91-.53-.66.1.57,1.03-.92.86,0,0-.12.19-.1.28.05.17.28.28.54.26.88-.06,1.33-.39,1.39-.87ZM176.21,103.03c-.43.01-.21.54-.17.85.1-.08.25-.14.29-.23.08-.22.49-.63-.12-.62ZM177.97,102.08c-.03-.18-.24-.25-.52-.25l-.25.22c.13.05.26.14.39.15.12,0,.37-.09.37-.12ZM179.46,103.11c.02-.06-.19-.16-.29-.24l-.42.07c.06.09.08.23.17.26.2.07.48.11.54-.09ZM182.51,102.25c-.21-.24-.52-.31-.84-.16-.32.15-.89.29-.62.59.25.28-.01.69.63.86.2-.21.33-.48.62-.61.42-.19.46-.4.21-.68ZM184.7,104.46c-.06-.21-.31-.24-.54-.24-.2,0-.25.11-.11.23.1.08.25.16.38.17.09,0,.19-.1.27-.15ZM184.83,102.34c-.31-.1-.43.09-.51.24-.08.15-.14.31-.21.47l-.11.08.16-.05c.27-.1.6-.17.81-.31.16-.11.14-.35-.13-.44ZM190.13,104.84s-.14.01-.21.02c0,.05-.05.11-.02.14.03.03.15.07.19.06.19-.05.21-.15.04-.23ZM192.73,103.3l-.16.02c-1.04-.24-2.11-.65-3.03-.1-.3.18-.76.13-1.2.02l-.16-.08.12.1c.15.68-1.17.44-1.33.97,1.31.28,2.03-.73,3.3-.32,1.12.35,1.7-.15,2.34-.54l.12-.06ZM194.06,105.47c-.02-.14-.04-.25-.06-.35-.14.02-.33,0-.41.07-.15.12-.18.29.13.38.09.03.24-.07.34-.1ZM195.68,106.58l-.15.02-.1.07.14-.02.11-.07ZM196.86,104.98c.03-.19-.03-.41-.35-.45-.21-.02-.51.07-.58.19-.09.16.12.37.39.46.3.1.46-.02.54-.2ZM202.35,106.55c-.58-.27-.93.01-1.41.04.63.39,1.08.4,1.41-.04ZM204.41,109.37c-.05-.11-.08-.26-.17-.3-.1-.05-.3-.04-.39.01-.12.07-.04.18.15.27l.41.02ZM205.66,108.29c-.12-.07-.3-.1-.43-.1-.19,0-.22.13-.05.21.12.06.29.04.43.07.24.01.27-.06.05-.18ZM207.56,105.11l-.19-.09.06.12.13-.03ZM206.57,110.15v-.12s-.1.07-.1.07l.1.05ZM208.66,110.03c.02-.08-.13-.22-.2-.33-.18.07-.39.11-.53.22-.12.09-.02.21.18.28.26.05.49.02.55-.17ZM213.55,112.6c.02-.16.13-.39-.24-.46-.42-.08-.71.11-.93.33-.14.14-.09.41.14.51.61.27.8-.08,1.03-.38ZM214.38,111.45c-.5-.78-1.14-.54-1.7-.59-.17-.16-.34-.31-.53-.45-.17-.13-.47-.65-.46-.08,0,.38.42.72,1,.61.54.12,1.01.7,1.69.51ZM215.71,112.18c-.01-.05-.07-.14-.12-.16-.18-.06-.24,0-.14.17.02.04.12.07.18.1.03-.04.09-.07.08-.11ZM217.45,109.24h-.19s-.17.03-.17.03h.18s.18-.03.18-.03ZM223.38,112.89c-.93-1.28-2.29-1.85-4.2-2.51,1.46,1.43,3,1.69,4.2,2.51ZM220.73,115.93c.41-.03.72-.16.53-.57-.2-.46-.71-.71-1.19-.81-.5-.1-.59.19-.51.57.07.34.06.66-.13.9-.23-.06-.47-.16-.67-.15-.18,0-.13.18.05.21.22.04.42-.01.63-.02.43-.05.85-.1,1.28-.13ZM221.6,117.74h-.16c-.19-.15-.41-.28-.59-.43-.39-.35-.69-.33-.95-.11-.04.03-.09.11-.06.15.24.4.61.45.99.46.22,0,.42-.01.63-.02l.14-.04ZM223.38,117.47c-.09-.19-.26-.38-.39-.56-.16.01-.28.02-.41.03.16.16.3.34.48.49.17.15.36.14.32.05ZM226.34,115.16c-.12-.46-.33-.87-.94-1.03-.11-.03-.31.13-.3.13.32.41.72.72,1.24.89ZM223.76,119.55c.1-.1.03-.23-.12-.31-.26-.07-.45-.03-.47.18,0,.06.2.27.28.28.12.01.25-.06.32-.14ZM230.43,117.84s0,.14.05.19c.04.05.12.08.19.12.02-.05.07-.1.05-.15-.07-.21-.19-.27-.29-.16ZM225.34,121.14l-.28-.44-.06-.15.02.14.33.44ZM227.57,122.2l.03-.12-.12.04.09.08ZM228.79,123.17l.04-.12-.13.03.09.09ZM230.41,121.82c-1.17-1.9-3.44-1.81-5.1-3.02.78.73,1.58,1.43,2.42,1.96.84.54,1.7.95,2.68,1.07ZM232.72,119.92c-.23-.23-.51-.51-.79-.44-.12.03-.07.31-.1.47l.8.2c.23.04.28-.04.09-.23ZM233.14,123.9c-.59-1.22-1.27-.5-1.9-.65-.07-.02-.14,0-.4,0,.34.51.5.89.78,1.19.65.72-.44.42-.27.84.09.24.26.46.49.47.82.04,1.68-1.08,1.3-1.85ZM235.59,122.39c.15-.08.11-.18-.09-.26-.06-.02-.14-.01-.19.02-.02,0,.04.11.07.17.07.03.17.09.21.08ZM237.27,123.72s-.09-.15-.14-.16c-.21-.06-.27,0-.16.17.03.05.13.07.2.1.03-.04.1-.07.09-.12ZM238.87,125.24s-.07-.11-.11-.18c-.07,0-.17-.05-.2-.02-.11.11-.04.22.18.27.05.01.12-.03.13-.07ZM240.52,127.18c-.1-.08-.2-.17-.3-.24-.01-.01-.06.06-.09.1.1.08.2.16.3.24l.09-.09ZM243.49,130.38l-.15-.04c-.12-.1-.23-.2-.35-.28-.03-.02-.08,0-.12,0,.12.25.31.25.48.31h.15ZM246.82,134.81v.31s.17.11.17.11c0-.11,0-.21,0-.32,0-.01-.1-.06-.16-.09ZM246.27,133.39l.05.15.08-.03-.13-.12ZM244.65,131.53l-.08-.15-.06.06.14.09ZM242.83,134.91l-.08-.12-.06.12h.14ZM245.5,137.52c.23-.2.26-.53-.04-.93-.43-.58-.94-.96-1.63-1.11.06.73.51,1.17.84,1.64.28.39.54.65.83.4ZM248.4,136.35c.02-.06.04-.11.06-.16-.06-.05-.13-.13-.19-.14-.19-.05-.21.04-.05.23.04.05.12.05.18.07ZM250.34,139.26c-.24.07-.64-.14-.63.3,0,.03.34.27.51.32.56.17.36-.22.12-.62ZM251.71,141.39c.05-.1.15-.17.13-.29-.02-.18-.17-.29-.27-.2-.07.07-.11.19-.11.32,0,.17.11.24.24.17ZM256.11,147.64c.05.04.12.04.17.05-.01-.06,0-.14-.04-.18-.04-.06-.13-.14-.16-.14-.15.02-.13.13.03.27ZM254.11,149.45l-.38-.28-.13-.03.13.08c.13.04.23.43.37.22ZM258.2,152.78s.06-.07.08-.11c-.05-.06-.09-.16-.14-.19-.18-.1-.22-.02-.11.18.03.05.12.11.17.11ZM261.06,156.21c.11-.02.06-.19-.08-.34l-.32-.24c.04.12.05.28.11.37.08.11.23.23.29.21ZM261.9,158.01l-.1-.13.04.16.06-.03ZM255.93,154.93c.18-.3.25-.63-.22-1.1-.09-.09-.32-.13-.32-.11.01.42.2.82.54,1.21ZM257.72,157.63c.09-.08.05-.22-.09-.37-.23-.21-.46-.37-.64-.26-.03.02.05.29.13.39.22.32.44.37.6.24ZM261.69,162.2l.1.13-.04-.16-.06.03ZM261.89,163.69c-.44-1.17-.87-.94-1.3-.95l-.48-.3-.13-.09.13.1.47.34c.43.29.85.58,1.3.89ZM265.85,166.68c-.03-.15-.03-.31-.09-.45-.06-.15-.16-.28-.24-.43l.09.45.24.42ZM263.57,169.76l.07-.1c-.04-.06-.09-.14-.13-.17-.14-.11-.17-.04-.07.17.02.05.09.07.13.11ZM265.28,173.44l-.1-.12c-.37-.7-.18-.81.12-.79l-.66-1.66c0,.2.06.52-.01.59-.66.59-.17,1.23.55,1.91l.1.07ZM269.2,180.81c0-.19-.03-.37-.17-.49l.14.47c-.16-.13-.19-.29-.15-.47-.16-.37-.35-.89-.56-.86-.2.03.01.5.11.77.2.54.42,1.29.62.59ZM268.74,183.26c-.05-.12-.1-.24-.15-.35,0-.01-.05.02-.07.04.05.11.1.23.14.34l.08-.02ZM270.17,186.97c-.22-.53-.25-1.67-.75-1.33l-.08-.07.07.13.75,1.28ZM272.14,191.7l-.04.07.06.05-.03-.12ZM270.81,189.61c.3.53.47.26.7.44l.08.08-.07-.13c-.25-.32-.6-1.19-.7-.4ZM271.2,188.55v-.14s-.05-.02-.05-.02l.05.16ZM273.53,197.85c-.34-1.34-.52-2.36-.88-3.25-.28-.7-.6-1.3-.91-1.94-.33-.64-.66-1.32-.92-2.19-.03-.1-.14-.17-.21-.25l-.31-.45-.23-.45.23.49.31.44c.23.96.51,1.78.83,2.47.3.69.64,1.23,1.02,1.61.06.06.13.19.19.29.05.62-.2.54-.27.99.39.21.72,1.41,1.15,2.24ZM273.06,198.92l-.06-.15-.24-.43-.12-.51v-.15s-.01.13-.01.13c-.01.2.04.39.13.58l.24.44.06.09ZM273.88,201.14c.07-.11.06-.37-.04-.73-.03-.1-.11-.2-.13-.18-.07.08-.12.23-.03.63.07.27.14.3.2.28ZM274.29,205.3c.08.06.04-.21-.03-.45-.06-.21-.13-.47-.18-.37-.02.04,0,.24.02.41.06.14.14.38.19.41ZM274.84,206.84l-.02-.12-.02.06.04.06ZM275.48,213.26c.01.18.04.32.07.35,0,0,0-.08,0-.12-.01-.07-.03-.15-.04-.22,0,0-.03-.04-.03-.01ZM275.38,210.26c0-.18-.03-.31-.07-.34,0,0-.01.08,0,.12.01.07.03.14.05.21.01,0,.03.04.03,0ZM276.61,218.65v-.14s0-.03,0-.03v.17Z" class="cls-5"/>
        <path d="M175.05,98.83c1.38-.05,2.76-.12,4.14-.11,1.38.05,2.77.02,4.15.15.55.04,1.26.17,1.35-.25.13-.59-.72-.53-1.34-.58-1.6-.13-3.2-.11-4.8-.15-1.6.05-3.21.04-4.8.2-.58.05-1.31,0-1.67.56.91.4,1.93.27,2.98.18Z" class="cls-5"/>
        <path d="M137.8,111.96c1.27-.88,2.56-1.74,3.88-2.55-1.48.65-2.8,1.47-3.88,2.55Z" class="cls-5"/>
        <path d="M145.44,107.12c-1.13.43-1.79.75-2.45,1.06.77.17,1.39-.24,2.45-1.06Z" class="cls-5"/>
        <path d="M146.67,106.61c.25-.16.35-.33.27-.44-.08-.11-.32-.05-.55.1-.24.15-.38.31-.28.42.1.1.31.05.56-.08Z" class="cls-5"/>
        <path d="M132.49,116.11c.21-.15.42-.32.47-.51-.13.06-.26.1-.38.19-.21.15-.42.34-.45.5,0,.01.25-.09.37-.18Z" class="cls-5"/>
        <path d="M125.94,122.33c.06-.13,0-.14-.15,0-.09.09-.17.22-.25.34.09-.05.17-.1.26-.17.04-.03.11-.13.13-.18Z" class="cls-5"/>
        <path d="M249.39,143.75c.08,0,.1-.17.15-.26-.13-.09-.26-.21-.38-.25-.18-.06-.22.06-.13.26.12.09.27.26.36.26Z" class="cls-5"/>
        <path d="M121.15,127.89c-.03-.05-.1,0-.19.18,0,.02.04,0,.06,0l.12-.18Z" class="cls-5"/>
        <path d="M123.88,124.53l-.16.14s-.02.09,0,.08c.04-.03.1-.09.16-.14v-.09Z" class="cls-5"/>
        <path d="M136.37,112.97s.08-.09.12-.14c-.12,0-.21.06-.28.19.05-.02.11-.02.16-.05Z" class="cls-5"/>
        <path d="M242.24,137.19c-.06-.04-.13-.06-.2-.09l-.3.03.33.19c.06,0,.13.02.19.01.02,0,0-.12-.02-.14Z" class="cls-5"/>
      </g>
      <g>
        <path d="M208.46,131.78c-.15.2-.41.11-.59-.01-.13-.08-.24-.19-.35-.28l-.4-.16.38-.21c.09-.49.07-.55-.2-.46-.23.07-.54.24-.58.05-.22-.78-1.38-1.1-1.56-1.82l.72.11.1.05-.07-.07c-.18-.2-.3-.52-.78-.11-.51.14-.76.02-.87-.28-.21-.06-.2-.16-.06-.3-.23-.69-1.04-1.16-.44-2.08.05-.08-.06-.22-.16-.29-.32-.25-.49-.55-.57-.88-.12-.32-.17-.66-.19-1.03-.02-.56-.15-1.1-.41-1.57-.25-.47-.49-.96-.81-1.39-.28-.38-.35-.72.46-1.12.27-.13.55-.37.25-.56-.12-.08-.18-.45-.57.02-.35.41-.83.38-.93.12-.27-.57-.79-.91-1.17-1.38-.41-.46-.28-.76.54-1.49.18-.16.34-.34.62-.62-.76-.09-1.41-.15-2.03-.2.13.11.24.24.39.33.17.1.55.04.42.38-.08.22-.38.49-.6.62-.33.18-.59.08-.7-.18-.13-.31.04-.71.26-1.08-.83.14-1.37-.04-1.9-.52-1.37-1.08-2.86-2.2-4.69-2.36-.7-.07-.7-.27-.28-1.62l.09-.09-.09.07c-.24-.25-.57-.75-.7.23-.11.75-.43,1.11-.81.8-.34-.27-.72-.35-1.11-.38-.39,0-.79.08-1.16.03-.49-.04-.98.26-1.25-.61-.09-.28-.29-.12-.44,0-.46.37-.88.48-1.31.44-.43-.05-.86-.15-1.31-.33-.29-.11-.55-.21-.84.01-.72.6-1.59.59-2.35.54-2.07.06-3.83,1.19-5.84,1.63-1.11.31-1.6,1.59-2.98,1.48-.25.61-.72.91-1.18,1.27-.46.35-1,.63-1.26,1.18-.21.45-.39,1.21-1.53.63-.54-.27-.41.33-.33.5.23.61.19,1.04.03,1.41-.17.36-.46.66-.67,1.01-.18.27-.48.19-.84,0,.04-.28.06-.57-.41-.72-.09-.03-.28.11-.3.22-.09.52.46.34.69.51.05.51-.26.9-.07,1.43.2.49-.88.1-.62.52.31.49.19.79.07,1.13-.04.11-.09.22-.13.4-.73-.17-1.24-.71-1.88-.97l-.08-.1.06.1c-.18.19-.77.07-.69.43.12.53.54.15.82.24.74.25.73.93,1.4,1.13-.31.59-1.02.03-1.43.2l.03.19-.2-.14c-.06.06-.18.18-.18.18,1.01.61,1.24,1.13,1.2,1.65-.02.26-.11.51-.2.76-.08.26-.13.53-.13.78-.86.02-.81-.65-1.37-.76-.16-.03-.44-.05-.48,0-.11.18.16.19.3.24.77.27-.44.67.3.98.46.18,1.04.36,1.16.8-.34.3-1.18-.38-1.3.28-.28,0-.54.07-.73.22-.34.14-.3.33-.05.53q.08.5.83.61c-.3-.23-.55-.43-.8-.62l.08-.48.7-.23c.41,0,.87.15.88.39,0,.6.59,1.11.48,1.68-.04.45-.03.9,0,1.35.03.45.1.89.25,1.32.07.22.03.33-.37.46-.58.19-.6.3-.23.43.66.21,1.01.42.5.99-.15.17,0,.19.11.26.54.29.69.68.75,1.12.05.43.11.88.32,1.26.04.07-.13.25-.21.38-.09.17-.57.14-.42.38.03.05.36-.2.46-.37.14.04.37.05.4.14.25.68.69,1.28,1,1.92.35.63.76,1.22,1.02,1.9.27.54.6,1.04.95,1.52.35.48.86.83,1.36,1.15.38.26.97.42.31,1.31l-.11.05h.11c.28.2.79,0,.87.56.06.49.65.52,1.11.58.34.04.66.13.95.26.7.29.71.27-.02,1.45-.37.17-.79-.09-1.22.58.49-.1.88-.21,1.22-.53.96-.47,1.65-.06,2.27.12.47.16,1,.19,1.47.32.5.09.94.26,1.27.8.64.21,1.32.26,1.98.38.69-.2,1.22.29,1.82.48.51.16.19,1.09-.07,1.69l-.06.09.08-.05c.21-.11.42-.18.52-.52.23-.8.41-1.64,1.09-.69.05.07.18.1.23.05.54-.56,1.07-.42,1.62-.39.55.06,1.12.18,1.61-.15.06-.04.16-.05.23-.03.39.1,1.03.51,1.16.28.33-.6.85-.26,1.16-.62.49-.56,1.37.38,1.79-.44.08-.18.3.15.4.38.13.29.14.58.1.87-.04.28-.1.66.26.64.18,0,.28-.25.23-.64-.16-1.35.03-1.82.96-2.03.88-.25,1.8-.49,2.51-1.09.45-.36,1.08.11,1.6.05h.09s-.09-.05-.09-.05c-.34-.36-.46-.75-.24-1.01.16-.19.41,0,.61.29l.03.12v-.11c.42-.11.62.86,1.08.6.08.08.14.17.2.26v.11s.04-.11.04-.11c0-.04,0-.1-.02-.13-.06-.06-.14-.11-.21-.17-.08-.09-.19-.18-.23-.28-.47-1.26-.45-1.24,1.01-.68-.88-.92-.84-1.62-.2-1.71.67-.08.99-.62,1.41-1.02.2-.21.43-.4.69-.54.25-.15.56-.24.98-.23.72-1.01,1.78-1.76,2.56-2.79.4-.65.91-1.26,1.28-1.94.35-.69.78-1.37,1-2.14.77-2.14,1.28-4.26,3.08-6.48,1.01.33,1.23,1.07,1.26,1.85.05.76.05,1.52.02,2.28-.02.77-.09,1.54-.41,2.26-.08.2-.15.42-.12.62.25,1.27-.08,2.46-.47,3.62-.22.57-.54,1.1-.83,1.63-.3.53-.61,1.05-.98,1.53-1.57,2.38-3.35,4.58-5.35,6.57-2.73,2.69-6.24,4.29-9.65,5.87-2.5,1.11-5.24,1.25-7.9,1.91-.47.12-.99.11-1.48.05-3.61-.17-7.23-.6-10.74-1.77-.42-.16-.82-.35-1.22-.56-3.11-1.63-6.17-3.41-8.8-5.85-.71-.69-1.43-1.39-2.01-2.21-.62-.78-1.23-1.58-1.76-2.43-.84-1.16-1.49-2.44-2.17-3.71-.31-.65-.57-1.32-.85-1.99-.3-.66-.51-1.35-.71-2.05-.98-3.15-1.3-6.47-1.36-9.8-.08-.94.11-1.87.25-2.8.12-.94.37-1.85.52-2.78.07-.44.17-.87.28-1.3l.44-1.25c.29-.84.55-1.68.8-2.54.15-.57.41-1.13.68-1.66,1.56-2.69,3.09-5.41,5.22-7.77.92-.91,1.82-1.86,2.87-2.63.51-.4,1.02-.82,1.54-1.21l1.62-1.11c2.9-1.97,6.29-3.07,9.68-3.92,5.02-1.2,10.3-.78,15.22.67,2.67.85,5.53,1.63,7.74,3.43.83.6,1.61,1.26,2.39,1.9.81.61,1.55,1.31,2.28,2.01.76.67,1.41,1.45,2.04,2.24.66.76,1.18,1.63,1.65,2.52l.64,1.14.61,1.16c.43.77.87,1.52,1.2,2.33.77,1.58.95,3.31,1.41,4.95.19.86.31,1.74.39,2.61.04.88,0,1.76,0,2.62.03.62.21,1.49-.97,1.45-.11.25-.2.54-.6.42-.18-.05-.25-.22-.19-.39.11-.28.39-.19.61-.22.35-1.15.15-1.4-.96-1.56-.82-.11-1.69.03-2.48-.2l-.1-.03.07.07c-.24.47-.28,1.01-.46,1.48-.22.47-.59.87-1.42,1.03-.02.06-.02.12,0,.18.18,0,.36,0,.52.02.25.04.45.18.3.37ZM204.85,145.34l.03-.09-.09.03.06.06ZM202.32,147.95l.09-.03-.06-.05-.03.08ZM200.82,148l.04-.08h-.09s.05.08.05.08ZM200,148.98c.09.08.17.17.24.26v.11s.03-.1.03-.1c-.01-.05-.01-.11-.04-.13-.07-.06-.15-.11-.22-.16h-.12s.12.03.12.03ZM200.21,153.61c.08,0,.15-.08.22-.12-.14-.07-.28-.17-.42-.21-.07-.02-.14.06-.21.09.08.23.26.22.41.24ZM196.94,151.74l.07-.02-.08-.09v.11ZM195.36,152.73c.02.06.11.1.17.15,0-.1,0-.19-.02-.3-.03-.14-.09-.17-.17-.12,0,.09,0,.19.03.28ZM193.75,153.91s.09.05.12.04c.12-.02.15-.09.08-.16-.02-.02-.08,0-.12.02l-.08.1ZM194.87,156.63s.09.05.13.04c.13-.02.17-.1.09-.17-.02-.02-.09.01-.13.02l-.09.11ZM189.36,154.67h.06s-.04-.11-.04-.11l-.02.11ZM188.1,155.12l.03.11.03-.1h-.06ZM186.57,155.37c.02.05.17.08.2.04.05-.06.07-.19.06-.3,0-.14-.07-.2-.16-.16-.1.1-.18.23-.1.42ZM183.27,155.68c.57.16.91-.25,1.28-.3l.07.08-.05-.11c-.44-.32-.81-.39-1.3.33ZM180.46,155.04c-.07.22-.02.38.14.35.23-.04.4-.25.46-.57.03-.17.02-.39-.14-.36-.23.04-.32.37-.47.58ZM177.29,154.32l.05.04.02-.11-.07.08ZM176.5,153.6c.11.09.25-.07.29-.28l.08-.35c.08-.08.21.12.25-.15l-.25.12c-.08.07-.18.13-.25.22-.1.13-.24.35-.13.44ZM175.21,154.01c.29-.24.49-.51.53-.97-.42.21-.57.52-.53.97ZM173.24,151.98h.09s.09-.07.09-.07l-.09.02-.09.06ZM172.01,152.93l.11-.04.1-.04h-.11s-.11.08-.11.08ZM166.92,153.79s-.07-.05-.11-.07c-.05.02-.11.04-.14.08-.02.02,0,.11.03.12.12.05.2,0,.21-.12ZM169.69,150.02c-.03.09-.12.23-.09.26.07.1.19.15.28.21.16-.1.2-.2.12-.27-.09-.08-.2-.14-.31-.2ZM169.12,148.98l-.07.1.1-.05-.04-.05ZM167.25,147.29l.08.03-.02-.08-.06.05ZM162.38,149.25l-.02-.1-.07.05.09.05ZM166.1,145.79c-.41.6-.25.86.43.73h.11s-.1-.03-.1-.03c-.35-.09-.07-.61-.44-.71ZM164.7,143.24l.06.06v-.09s-.06.03-.06.03ZM162.53,140.24s-.01.09.02.1c.12.06.21.03.23-.07,0-.03-.06-.05-.1-.08-.05.02-.12.02-.14.05ZM162.64,139.31v.06s.11-.06.11-.06h-.11ZM161.94,137.08c.01.28,0,.46.07.61.08.21.19.46.58.22.25-.15.15-.32-.05-.44-.18-.1-.33-.2-.6-.39ZM161.88,135.44l.08.07c.12.03,0,.24.25.17l-.22-.19-.11-.04ZM161.72,134.46s-.06.08-.06.12c.02.14.09.15.17.05.03-.03.02-.09,0-.13-.01-.02-.07-.03-.11-.05ZM162.75,134s.04.07.06.11c.03-.03.07-.05.1-.08,0-.04.02-.1,0-.12-.09-.07-.16-.04-.15.09ZM158.37,129.83c-.19-.02-.33.05-.38.21,0,.03.07.09.11.1.17.05.35.05.41-.11.02-.05-.09-.13-.14-.2ZM156.09,129.2c-.26-.05-.42.04-.39.23.02.13.14.3.27.36.17.07.37-.05.35-.23-.01-.13-.16-.26-.24-.36ZM157.16,127.45l-.08.08.09.03v-.11ZM162.3,127.59h-.16s0,.09.03.13c.1.1.19.1.21-.02,0-.03-.06-.07-.09-.1ZM162.71,122.25c-.11-.09-.21-.07-.19.04.01.07.12.16.2.21.13.08.2.06.2-.02-.07-.08-.13-.16-.21-.23ZM161.3,121.07l-.15-.03s-.02.1,0,.14c.07.14.15.14.21.02.01-.03-.04-.09-.06-.13ZM161.4,120.21l-.02.1.09-.04-.06-.05ZM162.01,118.28c-.12-.06-.24.03-.19.15.1.27.31.44.62.48-.04-.27-.15-.5-.43-.63ZM166.2,119.82l.02.1.05.1v-.1s-.06-.1-.06-.1ZM165.98,118.55s-.11-.04-.12-.03c-.02.03,0,.09-.01.13.04.03.09.1.11.09.12-.02.14-.09.03-.2ZM163.62,116.45c-.12.03-.14.11-.04.22.02.03.12.04.12.02.02-.04.01-.09.01-.14-.03-.03-.08-.1-.1-.1ZM167.92,117.33c-.42-.24-.71-.1-1.01.02-.15-.02-.32-.05-.46-.03-.12.02-.08.15.05.16.15.02.29-.04.43-.06.29-.13.85.52.99-.08ZM166.31,115.56s-.08-.07-.12-.08c-.16-.02-.19.04-.08.16.03.03.1.04.14.03.03-.01.04-.07.07-.11ZM163.24,112.55v.13s-.48.48-.48.48l-.11.02.11.03c.33-.03.55-.14.5-.53l-.02-.13ZM168.14,115.79c-.12,0-.27-.05-.29,0-.1.19,0,.41.18.6.12.12.21.12.2,0-.03-.2-.05-.4-.08-.61ZM170.18,113.82l-.02.1.02.11.02-.1-.02-.11ZM171.31,113v.12c-.02.16-.06.31-.06.47,0,.14-.01.35.22.34.03,0,.04-.19.02-.3-.03-.17-.1-.34-.15-.51l-.03-.12ZM172.26,112.52c-.03-.12-.13-.15-.19-.05-.04.07-.03.18-.04.27.06.12.15.15.2.06.04-.07.05-.18.03-.27ZM176.53,107.68s.08-.08.08-.12c0-.14-.09-.21-.2-.17-.04.01-.09.08-.08.12,0,.14.09.2.2.17ZM177.46,108.98c-.13.52-.3.96-.09,1.5.73-.35.76-.3.09-1.5ZM179.83,110.06c-.14-.1-.26-.02-.3.15-.04.2.08.31.2.39.13.09.24.06.29-.13,0-.19-.07-.33-.2-.42ZM183.62,110.06c0-.13-.07-.19-.16-.13-.11.07-.22.15-.3.26-.07.08-.03.18.09.19.18.01.31-.09.38-.31ZM186.69,110.12c.01-.3-.05-.36-.15-.3-.12.07-.29.14-.33.26-.08.23.07.3.21.24.12-.05.23-.17.28-.21ZM190.08,110.73c0-.23.06-.57-.12-.73-.19-.16-.31.09-.37.32-.08.3-.09.58.16.69.13.06.24-.03.33-.27ZM193.93,112.87h-.09s.04.08.04.08l.06-.08ZM194.54,111.98l-.28.07-.09.08.1-.04c.09-.06.2.16.27-.11ZM195.18,112.69h-.09l.05.07.04-.07ZM198.62,107.73c.1-.05.24.21.33-.06l-.33.03-.11.05.12-.02ZM196.5,112.31c0-.06-.19-.13-.21-.1-.34.42-.51.87-.37,1.47.27-.5.64-.85.57-1.37ZM199.26,114.32c-.24-.58-.83-.72-1.48-1.19.26,1.05.94.98,1.48,1.19ZM202.13,112.98c.04-.13-.02-.2-.14-.19-.04,0-.11.06-.12.1-.04.13.02.2.14.19.04-.03.11-.06.12-.1ZM201.85,117.14l-.09-.26c-.04-.73-.6-.25-.92-.09-.41.2-.74.55-.52,1.11.46-.51.83-1.06,1.43-1.02.02.1-.17.31.1.26ZM202.27,117.93s.08-.1.07-.11c-.02-.03-.07-.05-.11-.05-.14.03-.18.1-.1.17.02.02.09,0,.14-.01ZM207.16,120.27s-.07.08-.07.12c0,.04.05.06.08.09.04-.03.09-.05.11-.09.07-.14.02-.19-.12-.12ZM203.94,120.43c.24-.48-.04-.71-.57-.94-.05.53-.14.91.28,1.05.06.02.26-.06.29-.12ZM203.55,123l.08-.09c.16-.16.35-.32.48-.5.14-.19.21-.42-.1-.41-.25,0-.45.19-.47.39,0,.17.03.34.05.51l-.04.09ZM210.33,120.26c.03-.1.08-.2.1-.3.02-.14-.07-.23-.18-.16-.06.04-.11.19-.09.27.01.08.11.13.18.19ZM205.51,123.99c.06-.24-.04-.42-.28-.5-.1-.04-.25.06-.24.15.02.23.27.29.52.35ZM207.29,123.38c-.27-.33-.55-.43-.92-.34-.02,0-.05.18,0,.24.15.23.46.15.92.1ZM205.05,125.41s.01-.08-.01-.09c-.11-.05-.2-.02-.21.07,0,.03.06.05.09.07.05-.02.11-.03.14-.05ZM204.41,128.42l.06-.05h-.09s.03.05.03.05ZM206.84,128.64c-.16-.78-.78-.93-1.55-.83l-.1-.02.07.05c.65.02,1.02.42,1.57.8Z" class="cls-5"/>
        <path d="M204.69,130.4c-.08-.08-.25-.14-.39-.15-.17,0-.32.09-.31.21.01.19.24.2.5.18.13-.05.35-.1.2-.23Z" class="cls-5"/>
        <path d="M212.75,132.46c0-.09-.03-.24-.1-.28-.21-.11-.3.05-.35.19-.06.15-.06.3.11.38.29.05.33-.13.34-.29Z" class="cls-5"/>
        <path d="M207.78,132.18c-.16-.05-.33-.08-.42.09,0,.16.15.23.33.24.1,0,.26-.02.3-.07.1-.15-.07-.22-.22-.26Z" class="cls-5"/>
      </g>
      <g>
        <rect height="0" width="0" y="85.72" x="191.2" class="cls-5"/>
        <path d="M217.11,91.66c-.22-.11-.43-.19-.64-.28.08.07.06.08-.05.04.1.08-.69-.28-.08.06.6.33-.03.08-.05.13.49.22.95.44,1.4.61.19.07.4.18.57.28.07.04.14.08.15.09.02.02-.09-.03-.19-.07-.17-.07-.34-.14-.51-.21-1.27-.54-2.59-.95-3.84-1.51-.21-.1-.47-.16-.7-.23-.64-.18-1.29-.37-1.88-.62-1.04-.48-2.21-.64-3.25-1.09-.11.02-.2-.01-.27-.09-.22-.02-.48.03-.59-.22l.08-.02h-.08c-.6,0-1.1-.47-1.74-.29-.03.01-.06.03-.1.03,0,0-.04-.05-.03-.05.03-.02.06-.03.09-.04.05-.08.3-.19.04-.25-.83-.2-1.67-.41-2.52-.5-.38-.05-.64-.43-1.06-.25.01.03.04.06.03.08-.03.06-.07.04-.1-.05-.57-.09-1.08-.44-1.72-.21-.03.02-.07.04-.1.05,0,0-.04-.05-.03-.06.02-.03.06-.05.09-.07-.06-.18-.23-.38-.36-.35-.79.21-1.49-.09-2.24-.07-.45.01-1.03.31-1.2-.44.1-.07.21-.12.3-.2.1-.08.2-.21.12-.31-.09-.11-.18.02-.25.13l-.19.34-.2.15c-.34.29-.68.26-.9.02-.26-.29.22-.6.23-1-.36.22-.69.4-1.01.63-.4.29-1.44.45-1.75.12-.25-.27-.55-.32-.86-.37-.17.28-.33.6-.53.16l.42-.29-.03-.55c.07-.07.18-.11.16-.27-.02,0-.05,0-.07.03-.04.07-.07.15-.11.22-.23.22-.31.54-.39.86-.19-.14-.36-.4-.64-.1l.05.07-.06-.06h0c-.28-.24-.94.66-.92-.45-.06.02-.13.02-.19.05-1.43.73-1.83,1.25-2.49-1.14-.45.14.08.91-.33.98-.43.08-.85.1-1.27.33-.1.05-.17-.17-.16-.33.06-.79-.49-.8-.69-1.27l.03-.62.25-.28c.03-.11.21-.13.09-.32l-.1.31-.26.27c-.15.22-.22.44-.06.68-.09.62.49.58.45,1.27-.57-.02-1.07,1.05-1.67.31-.37.96-.78-.17-1.22.29-.45.49-.84-.3-1.29-.31-.96,0-1.92-.34-2.89.14-.67.31-1.43.53-1.78-1.33-.3.8-.53,1.62-1.02,1.6-.68-.05-1.35.76-2.02-.18-.16.04-.3.14-.39.38.03.03.08.07.08.1,0,.13-.05.11-.1-.05-.07,0-.13,0-.2,0-.04.22-.08.43-.23.47-.02,0-.1-.16-.09-.21.04-.26.18-.25.31-.28-.18-.3-.43-.46-.57-.21-.4.69-.98.54-1.44.88-.47.36-1.13.22-1.68.39-.51.15-1.06.17-1.58.63-.13-.75,0-1.1.27-1.21.2-.08.44-.04.36-.56-.06-.4-.3-.69-.49-.75-.29-.09-.12.6-.28.77-.03.03-.07.01-.12.02-.3-.29-.17-1.18-.61-1.3-.07-.06-.14-.35-.23-.11l.21.16.13.56c.43,2.08.39,1.95-.69,2.43-.65.31-1.31.48-1.97.76-.66.27-1.32.51-1.99.74-1.32.48-2.65.93-3.84,1.81-1.08-.37-1.65.88-2.72.56-.24-.07-.44-.03-.5.3l.08.05-.08-.04h0c-.46.78-1.4.39-2.04.77-.67.41-1.22,1.14-2.26.67-.09-.04-.12.31-.23.39-.48.34-.93.76-1.63.65-.51-.08-.9.18-1.31.37-.82.38-1.89.13-2.76.47-1.47.62-2.92,1.32-4.7,1.35-.77.84-2,.81-2.98,1.27-2.39,1.06-5.02,1.73-7.31,3.05-.33.19-.7.28-1.11.09-.21-.1-.19-.35-.22-.55v-.08s-.03.07-.03.07c-.46.29.24.96-.25,1.22-.39.21-.79.4-1.2.58-.62.27-1.08.9-1.89.8.03-.1.07-.21.08-.31.01-.09.06-.23-.12-.21-.03,0-.06.13-.05.19,0,.11.04.21.06.32-.32.51-.78.81-1.33,1.09-2.35,1.2-4.54,2.66-6.59,4.31-.36.29-.68.45-.88.26l.03-.06-.05.06c-.09.17-.54.3-.39.54.06.1-.47.4-.72.4-.08,0-.19.04-.29.06-.18.53-.72.77-1.21,1.07-.05.09-.12.18-.26.24-.02,0-.04,0-.04,0,.04-.12.18-.16.28-.23.28-.4.75-.7,1.13-1.05.22-.35.63-.6,1.03-1.01-.94.68-1.64,1.4-2.4,2.07-.96.88-1.96,1.72-2.89,2.6-.12.11-.16.16-.44.44.32-.35.37-.41.5-.55.28-.3.56-.6.85-.9-.05,0-.17.13-.24.21-.18.18-.53.58-.46.44.06-.12.34-.46.54-.7,1.16-1.39,2.39-2.72,3.65-4.03,1.16-1.22,2.42-2.33,3.46-3.69.25-.33.58-.6.89-.88,1.35-1.19,2.55-2.54,3.86-3.79,2.15-1.93,4.06-4.22,6.44-5.91.93-.68,1.81-1.51,2.75-2.19,1.04-.76,2-1.75,3.36-1.99.53-.08.73-.91,1.28-1.16,1.1-.51,2.24-.99,3.24-1.65,1.39-.84,2.86-1.52,4.33-2.17,1.34-.63,2.74-1.2,4.14-1.73.98-.34,1.95-.69,2.97-.92,1.02-.25,2.03-.49,3.02-.79,1.94-.64,4.06-.72,6-1.38,1.85-.69,3.85-.86,5.77-1.41.73-.19,1.5-.32,2.25-.36.75-.05,1.5-.14,2.23-.41l.08.14.09-.07c-.05-.04-.11-.06-.17-.07.06-.18.15-.19.26-.07.9.1,1.79.35,2.63-.28.17-.12.39-.16.57-.11,1.57.45,3.1-.32,4.65-.04,1.97.45,4-.17,5.94.54.28.11.62.01.92-.03,1.18-.17,2.31.26,3.46.42.69.12,1.41.1,2.08.28.86.23,1.74.39,2.61.57.86.22,1.72.44,2.55.74,1.5.49,2.96,1.05,4.43,1.58,1.47.5,2.9,1.13,4.34,1.69,1.45.6,2.88,1.24,4.23,2.02l2.55,1.55c.83.55,1.65,1.13,2.44,1.74.74.6,1.47,1.19,2.18,1.81.5.45.91.88,1.46,1.36.27.24.57.6.68.73.15.18.46.44.68.64,0,0-.14-.11-.34-.25s-.46-.3-.68-.42c-.1-.06-.19-.11-.28-.16-.31-.18-.27-.22-.44-.34-.23-.17-.15-.04-.35-.14ZM217.76,91.75l.05.05h0s-.06-.05-.06-.05ZM117.36,107.46s-.05,0-.06.01c-.02.02-.05.06-.05.07,0,.06.05.05.1-.02.01-.02,0-.04,0-.07ZM118.72,106.3s-.04.05-.06.08c.02,0,.05,0,.07,0,.03-.01.07-.04.08-.06.03-.07,0-.07-.09-.01ZM121.57,104.26l-.05.05h.07s-.02-.05-.02-.05ZM122.07,103.76l-.02.08v.08s0-.07,0-.07l.02-.08ZM124.07,102.84s-.07-.01-.1,0c-.09.04-.11.09-.05.12.02,0,.06-.02.09-.04l.06-.09ZM124.91,101.56s-.15-.02-.2.01c-.1.06-.15.17-.04.27.04.03.14,0,.2,0,.09-.08.15-.17.04-.27ZM126.81,100.57c-.07,0-.15-.04-.2-.01-.09.05-.36,0-.22.18.11.13.3-.05.42-.17ZM126.22,98.82c-.07.03-.15.04-.2.07-.04.03-.06.1-.09.15.06-.02.13-.03.19-.07.04-.03.07-.09.1-.15ZM127.02,97.9l-.04.06.07-.02-.03-.05ZM128.76,100.17l-.05.05h.07s-.02-.05-.02-.05ZM128.27,97.42c-.24-.11-.46-.14-.59.1-.03.05.03.22.04.22.25.02.41-.13.56-.32ZM128.88,96.89s-.05-.08-.08-.09c-.09-.03-.14.01-.14.11,0,.03.04.08.07.09.09.03.14-.01.14-.11ZM129.67,96.48s.03-.13.05-.2c.02-.18,0-.37-.22-.37-.06,0-.17.09-.16.12.07.21.26.15.38.25-.04.05-.11.08-.13.14-.03.08.02.12.08.06ZM131.45,98.69l-.14.21v.09s.03-.08.03-.08l.1-.23ZM130.33,95.54s.08,0,.09-.02c.01-.02-.02-.07-.03-.11-.03-.01-.08-.04-.1-.03-.09.05-.08.11.04.16ZM132.42,98.49c-.09-.02-.13.03-.08.13.01.02.07.06.08.05.02-.02.03-.06.04-.09-.02-.03-.03-.09-.05-.1ZM130.82,94.99l-.05.06h.08s-.03-.06-.03-.06ZM137.2,92.1s.07.04.11.05l.05-.08s-.07-.09-.1-.1c-.11-.03-.14.02-.07.13ZM136.57,92.41l.08.07.09.02-.09-.05-.09-.03ZM135.81,91.5l.02-.09v-.09s-.03.08-.03.08v.1ZM135.16,91.73c.06.03.13.06.19.08v-.12s-.19-.07-.19-.07c0,.04,0,.1,0,.11ZM134.33,93.94h.08s-.03-.06-.03-.06l-.05.06ZM132.46,93.92l.03-.09c.21-.24.72.04.78-.47.09-.04.2-.05.26-.12.04-.05-.06-.18-.12-.14-.07.05-.11.17-.16.26-.48-.23-.73-.04-.78.48v.1ZM133.55,94.39h.08s-.03-.06-.03-.06l-.05.06ZM131.66,95.49l-.05.06h.08s-.03-.06-.03-.06ZM133.95,97.97h-.08s.04.06.04.06l.04-.06ZM131.81,94.2h-.05s.06.09.06.09v-.09ZM132.73,94.95s.19-.19.22-.35v-.1s-.03.09-.03.09c-.04.15-.35.07-.19.36ZM134.73,97.57h-.08s.03.06.03.06l.04-.06ZM135.92,96.91c-.08.07-.14.17-.16.29-.02.1.08.17.15.11.07-.08.11-.2.15-.29,0-.12-.06-.17-.14-.1ZM135.59,95.89c-.45.3-1.22.07-1.37.86.51-.21,1.08-.31,1.37-.86ZM136.29,95.46c-.07-.01-.16-.06-.2-.03-.05.03-.09.14-.07.2.08.18.19.17.26.07.03-.05,0-.16.01-.24ZM135.85,92.54c-.38.43-.63.7-.87.98.35-.13.84-.07.87-.98ZM138.63,94.22c-.36-.05-.49.12-.54.39-.23.21-.61.23-.64.69v.1s.02-.09.02-.09c.28-.15.75-.05.65-.68.15-.13.31-.25.51-.42ZM137.26,90.57c-.1.02-.16.12-.24.19l-.09-.04.09.05c.11,0,.23.04.31,0,.07-.04,0-.21-.07-.2ZM142.87,87.75c.34.07.47-.14.5-.51-.12.22-.54-.09-.5.51ZM140.38,88.72c.02.1.08.12.15.04.02-.02.02-.07.02-.11h-.11s-.07.04-.06.07ZM138.96,89.58l.04-.07h-.08s.04.07.04.07ZM138.66,90.29l.07-.02-.07-.1v.11ZM138.73,91.25c.4-.17.67-.29.93-.4-.33,0-.7-.09-.93.4ZM139.88,93.82c.06-.02.08-.1.12-.16.06-.11.02-.17-.08-.14-.06.01-.12.07-.14.13-.04.1.02.19.1.17ZM138.22,91.44h-.08s.04.07.04.07l.04-.07ZM140.82,93.98l-.02.08c-.15.19-.41.26-.43.59.02.14.02.29.08.42.08.21.23.37.4.31.06-.02.13-.09.13-.16-.02-.25-.22-.31-.36-.41l-.23-.17c.2-.14.41-.26.46-.58v-.1ZM141.97,94.89s-.07-.05-.09-.05c-.03,0-.08,0-.09.04-.02.09.03.13.12.09.03-.01.04-.05.06-.08ZM143.36,92.98l-.07-.1v.11s.07,0,.07,0ZM142.13,89.31c-.34.17-.66.33-.99.49-.43.23-.42.24-.59.92.67-.32,1.19-.76,1.58-1.41ZM144.4,92.09h-.06s.07.11.07.11v-.11ZM146.85,91.81c-.42-.23-.46.18-.64.33-.08-.01-.23-.26-.23,0h.23c.37.22.59.14.64-.33ZM145.97,91.09s-.02-.09-.03-.14c-.03,0-.07,0-.1-.01,0,.04-.03.09-.02.12.06.15.12.16.14.03ZM145.65,87.59c-.49.73-1.65.25-1.93,1.34-.21.29-.74-.18-.91.37.51.25.79.13.92-.35.92.05,1.55-.38,1.92-1.35ZM147.83,91.42c-.07-.12-.14-.15-.17-.04-.03.07-.05.18-.02.27.04.12.13.14.17.04.03-.07.02-.17.03-.26ZM146.24,86.19s-.05-.24-.11-.29c-.26-.24-.41-.13-.46.16-.06.04-.12.07-.2.09-.26-.18-.39-.08-.44.21v.11s.03-.1.03-.1l.41-.2c.12.09.2.06.21-.1.17-.06.43.41.55.11ZM148.73,90.91l-.17.09s.08.06.11.06c.03,0,.07-.02.09-.04,0,0-.02-.07-.03-.1ZM148.34,89.89l-.05.06.08.02-.03-.07ZM147.27,87.18c-.19-.1-.25-.16-.27-.14-.17.15-.34.3-.5.46-.01.01.02.1.04.15.16-.08.33-.15.48-.24.06-.04.11-.1.25-.24ZM148,86.64c-.14-.12-.25-.11-.31,0-.03.05,0,.23.03.28.13.15.24.12.31,0,.03-.05-.01-.19-.02-.29ZM147.66,85.02l-.22.04c-.09.06-.21.1-.16.3.04.12.14.14.19.03.06-.13.27-.08.18-.37ZM150.49,89.98c-.05-.1-.19-.25-.2-.24-.19.23-.1.66-.08,1.03,0,.07.11.19.23.38.18-.31.36-.57.05-1.17ZM149.28,86.41c-.12-.32-.29-.32-.43-.27-.16.05-.42,0-.25.53.28.03.54.05.68-.26ZM151.27,90.02s-.06-.11-.09-.14c-.11-.08-.15-.02-.08.14.02.04.07.06.11.08l.07-.08ZM149.98,86.19l-.08-.03.02.08.06-.05ZM150.53,85.92c.08,0,.07-.12-.02-.24l-.21-.19c.01.09,0,.2.04.26.04.08.14.17.19.17ZM152.29,89.01l-.03.09c-.07.35-.21.67.12,1.21.07-.4-.03-.8-.1-1.19v-.11ZM154.06,90.71l-.08-.02.03.08.05-.05ZM151.81,84.66l-.06.06.09.04-.03-.1ZM155.11,83.95c.12.06.21.01.24-.16,0-.15-.05-.23-.15-.21-.1.02-.25.01-.28.12-.06.22.11.22.19.26ZM152.55,84.53c.04.09.14.22.19.22.15,0,.13-.18.02-.34-.05-.08-.14-.11-.22-.16,0,.09-.03.2,0,.28ZM154.74,89.43l-.02.1-.41.12-.09-.06.08.08c.11.27-.06.69.3.81.25.09.35-.14.2-.59-.04-.11-.05-.22-.07-.33v-.12ZM154.74,88.36c-.33-.27-.55-.21-.7.09.11.37.28.34.4.29.13-.05.41.08.29-.38ZM154.37,84.3s.03-.08.04-.12c-.03-.06-.06-.1-.09-.15-.02.03-.06.05-.07.09-.02.15.03.22.12.18ZM156.5,89.08l-.06-.1v.11s.06-.01.06-.01ZM157.28,86.99c-.6.3-1.53-.33-1.59,1.21.56-.39,1.62.62,1.59-1.21ZM156.74,82.84c-.24-.22-.47-.04-.6.21-.08.16-.12.37-.19.58.34.28.28-.21.42-.29.11-.07.23.04.33.04.29,0,.27-.32.03-.54ZM159.24,87.63c-.07-.04-.14-.09-.21-.11-.09-.02-.12.07-.04.17.05.07.14.09.2.1.09,0,.11-.06.05-.17ZM159.36,86.77s-.06-.12-.08-.11c-.03,0-.05.06-.07.09.01.05.02.14.04.15.1.08.14.03.11-.14ZM158.72,82.36c-.06-.02-.14-.07-.18-.04-.05.03-.1.13-.09.21.02.13.1.16.16.06.04-.07.07-.14.11-.23ZM160.79,87.99s-.07-.09-.08-.08c-.03.01-.06.06-.06.1.01.16.07.21.14.14.02-.02,0-.1,0-.16ZM159.63,82.09l-.06.06.08.03-.02-.09ZM161.56,86.16s.09-.1.25-.31c-.54-.11-.8.02-.91.49-.01.04.1.29.14.29.26.06.25-.53.53-.47ZM162.23,87.26c-.06.11-.08.29-.12.44l-.02.1.05-.07c.07-.1.16-.18.2-.32.03-.12-.06-.24-.11-.15ZM160.95,81.61c-.24.13-.49.2-.6.57-.03.08-.06.16-.08.24,0,.03.03.09.04.13l.06-.35c.16-.26.59.03.58-.59ZM162.32,85.49l-.07-.04v.08s.07-.05.07-.05ZM163.91,87.09s-.07-.05-.1-.04c-.1.03-.1.1-.02.16.03.02.07,0,.09-.02.02-.01.01-.07.02-.1ZM164.61,84.8l-.05.09c-.43-.13-.84-.18-1.15.01-.3.21-.51.68-.54,1.51.7-.21,1.07-1.14,1.7-1.51l.04-.1ZM165.32,85.71l-.16.12.19.49c.04-.06.1-.09.11-.17.03-.17,0-.36-.14-.44ZM165.22,84.65l-.07-.05v.09s.07-.03.07-.03ZM169.08,84.51s-.06-.05-.14-.1c-.21.26-.26.67-.16,1.15.02.09.23.24.28.19.3-.3.07-.8.01-1.23ZM169.21,83.09l-.05.1c-.31-.09-.65,1.07-.91-.32l.04-.1-.06.08c-.44.5-.88,1-1.35,1.54.35.3.64-.09.91.34.12.18.31.39.36.09.14-.92.88-.71,1.02-1.61l.04-.11ZM169.64,83.82l.06-.06-.07-.05v.11ZM170.12,84.49c-.06-.05-.12-.13-.17-.13-.06,0-.12.07-.19.1.05.05.11.14.16.14.06,0,.12-.07.2-.11ZM171.49,83.57c.61.24.61.22.81-1.07-.57.7-1.19.51-1.76.77.11.3.19.77.46.47.15-.16.28-.26.48-.18ZM172.78,83.68l-.06.07-.2.41c-.23.4-.47.76-.75,1.04.41,0,.91.18.76-1.02l.21-.39.04-.1ZM172.95,78.67l-.07.05.07.05v-.1ZM173.4,82.28c0-.14-.05-.21-.14-.18-.02.01-.04.09-.05.13,0,.14.06.21.14.18.02,0,.05-.09.05-.13ZM174.36,84.56c0-.14-.05-.19-.12-.13-.06.04-.1.11-.16.17.04.04.1.13.13.12.05-.02.1-.1.15-.16ZM174.72,81.89c-.04-.06-.13-.02-.21-.03-.08.13-.43-.03-.18.5.11.23.06.45-.08.59-.12.13-.42.17-.13.57.1.13.28.14.41.1.15-.05.31-1.53.19-1.72ZM175.03,84.93s-.01-.1-.02-.15c-.03.01-.07,0-.09.03-.07.12-.06.2.04.22.02,0,.06-.05.07-.1ZM175.08,78.77l-.07-.06v.09s.07-.03.07-.03ZM175.41,82.3l-.11.34-.04.1.06-.07.1-.37ZM176.13,79.03c.08.09.14.05.16-.09-.05-.07-.09-.17-.15-.2-.05-.02-.11.05-.17.08.05.07.1.15.16.21ZM177.06,84.29s-.05-.08-.07-.07c-.05.02-.09.08-.13.12l.07.08.13-.13ZM177.37,81.86l-.06.09c-.3-.17-.62-.5-.9-.01-.21.37-.12.75.15,1.17.14-.61.52-.73.77-1.14l.05-.1ZM178.1,78.34c-.42.11-.82.21-1.22.32l-.06-.08.05.1c.81.38.8.38,1.23-.34ZM178.62,84.34l-.06-.06v.09s.06-.03.06-.03ZM179.34,82.64l-.06.08c-.68-.46-.68-.43-1.28.41-.08.11-.18.19-.28.27.32-.02.65-.05.97-.06.28,0,.49-.16.6-.6l.04-.11ZM178.85,81.63c.07.13.12.12.13-.04,0-.04-.03-.11-.05-.12-.02-.02-.06.01-.09.02,0,.05,0,.11.01.15ZM179.52,78.54c-.33.05-.53-.16-.85.15.31-.04.51.15.85-.15ZM179.71,84.37l-.06-.04v.08s.06-.03.06-.03ZM180.01,78.52c0,.05,0,.12.01.15.07.12.13.1.14-.04,0-.04-.03-.11-.06-.13-.02-.02-.06.01-.09.02ZM179.97,82.08l-.05-.1.03.12-.02,1.18c.15-.4.71-.77.03-1.2ZM180.33,84.37l-.08.03.06.07.02-.09ZM181.92,79.04c.09.34.23.05.34-.06.06-.06.13-.1.2-.16.06.07.07.32.21.14l-.19-.17c-.1-.06-.2-.19-.3-.17-.15.02-.33.17-.26.42ZM181.06,78.81l.25-.11.05-.1-.07.07c-.06.02-.13.03-.19.05-.02,0-.03.06-.04.09ZM182.03,84.35l-.21-.02c-.04-.07-.08-.15-.12-.21-.01-.02-.05,0-.08.02l.2.19c.03.19.01.53.15.5.21-.04.05-.31.07-.48ZM182.39,82.62l.06-.65c.1-.06.22-.1.3-.2.07-.09.02-.22-.06-.15-.09.07-.17.21-.25.32-.51.1-1.02-.59-1.54.11.15.18.19.77.46.45.42-.48.68.04,1.01.15.02.61-.25,1.11-.33,1.69.39-.29.65-.78.77-1.4.16-.88-.26-.25-.42-.31ZM183.38,84.2l-.07.03.05.06.02-.09ZM183.8,78.86c-.05-.06-.09-.13-.13-.14-.07-.02-.14.01-.22.02.04.05.07.12.11.14.07.02.14,0,.24-.02ZM183.96,82.43c.04-.24.29-.55.02-.69-.16-.09-.16.3-.21.5-.01.05-.02.11-.03.17-.05.13-.15.31-.13.38.08.26.21.09.33-.01.02-.04.06-.07.06-.11,0-.08-.02-.16-.03-.24ZM184.83,79.05s.08.04.11.02c.08-.07.05-.13-.05-.16-.03,0-.07.02-.1.04l.05.1ZM184.74,81.82s0-.08-.01-.12l-.15.08v.12c.07-.03.12-.05.16-.08ZM185.91,81.98c.01-.1-.11-.15-.14-.07-.04.13-.01.29-.02.44l-.07.08.07-.06c.05-.13.13-.25.15-.38ZM186.39,79.27c-.02-.08-.03-.22-.06-.24-.14-.07-.27.01-.39.15.05.04.1.09.17.16.08-.02.18-.04.28-.07ZM186.63,81.85v-.1s-.05.09-.05.09l.05.02ZM187.29,79.16s-.12.09-.14.17c-.02.07,0,.17.01.25l.15-.2c.07-.1.06-.21-.02-.22ZM191.51,79.82c.07.03.13.08.2.09.04,0,.1-.04.16-.06-.09-.04-.15-.09-.22-.1-.04,0-.1.05-.14.07ZM188.52,82.28c-.59-.38-.88.41-1.27.61l-.07.09.07-.08c.57.66.89.05,1.27-.62ZM188.63,83.02l-.08.06-.06.07.07-.05.07-.08ZM189.48,79.33l-.09.04c-.43-.07-.86-.09-1.3-.13.43.18.84.44,1.31.15l.07-.06ZM189.45,84.37l-.25.07c-.04.1-.2-.03-.17.2l.19-.15.24-.11ZM190.71,79.52c-.15-.07-.29-.02-.42.08-.05.08-.21-.1-.19.15l.21-.12c.13-.09.31.2.41-.11ZM191.35,82.7l.44.08c-.1-.28-.26-.24-.45-.11l-.26.25c-.15,0-.3,0-.44-.03-.72-.18-.52.36-.4.83.05.16-.18.45.07.49.03,0,.03-.34-.05-.5.07-.71.56-.5.84-.76l.25-.26ZM191.79,82.79l-.34.54c-.06.11-.17.25-.16.33.05.24.2.11.32.03.62-.19.46-.52.18-.89ZM192.73,80.12s-.06.06-.06.09c0,.02.03.06.04.09.03-.02.08-.02.09-.05.06-.1.03-.15-.07-.13ZM192.51,82.65c.05-.08.19.07.2-.14l-.21.12-.07.07.08-.04ZM192.31,84.85l-.05-.05-.02.06h.07ZM192.93,84.08l-.05-.06-.02.07h.07ZM193.95,84.32s-.03-.07-.06-.09c-.09-.05-.14-.02-.13.07,0,.02.06.03.08.05l.1-.03ZM195.12,83.32c-.04-.22-.23-.1-.36-.03-.13.07-.26.16-.4.24.12.2.27.19.41.17.18-.03.4-.09.35-.38ZM197.68,81.37l.06.05.02-.06h-.07ZM197.44,83.87c-.56-.71-.67-.7-1.09.02l-.07.06.08-.05c.35,0,.69.25,1.08-.03ZM198.47,81.84v-.08s-.05.05-.05.05l.05.03ZM200.14,82.05l.05.06.03-.05h-.07ZM198.7,83.89h-.07s.05.05.05.05l.02-.05ZM198.79,85.62l-.05-.02v.08s.05-.06.05-.06ZM199.56,84.73s.01-.06,0-.07c-.03-.02-.06-.03-.1-.03-.11,0-.11.05,0,.1.03.01.07,0,.1,0ZM201.87,82.79h.07s-.06-.05-.06-.05l-.02.05ZM201.23,82.52h.07s-.06-.05-.06-.05l-.02.05ZM201.33,86.4s-.07-.02-.1-.03l-.06.05s.05.06.08.07c.11.02.14-.01.09-.09ZM202.69,84.95c.03-.24-.2-.26-.38-.31-.7-.2-1.42-.4-2.15.28.74.11,1.4.28,2.07.4.23.04.43-.14.46-.37ZM203.82,85.86c-.39-.1-.66.11-.96.24-.07.01-.13,0-.18-.04l-.05-.06.03.07c.04.09.11.12.21.07.36.06.73.13.95-.28ZM204.85,86.73s-.04-.04-.07-.06c-.03.01-.07.02-.08.04-.04.08,0,.12.1.09.03,0,.06-.04.05-.06ZM205.28,86.25l-.05-.06-.03.05h.08ZM205.75,85.88s0-.06-.03-.08c-.02-.02-.06-.02-.09-.03,0,.03-.02.06,0,.08.04.09.09.1.13.03ZM207.63,85.07c-.32-.17-.62-.34-.93-.49-.09-.05-.21-.03-.32-.04-.06.03-.18-.13-.19.03h.2c.34.42.77.46,1.24.5ZM207.28,87.51c-.36-.39.2-.52.18-.82-.47-.12-.79,0-1.18.18.28.4.62.49,1,.65ZM207.95,88.77l-.03-.05-.05.02.08.03ZM209.43,86.11l.04.05.02-.02-.07-.03ZM209.27,87.78h-.07s-.07.02-.07.02h.07s.07-.02.07-.02ZM209.44,87.41c-.15-.06-.3-.12-.55-.21.14.11.19.16.24.18.11.04.24.15.3.02ZM209.45,88.31s-.02-.05-.04-.06c-.03-.02-.07-.04-.1-.04-.08,0-.06.04.04.08.03.01.07.01.1.02ZM210.68,86.71s0-.04,0-.05c-.03-.02-.06-.05-.09-.06-.1-.03-.1,0,0,.06.03.02.06.03.09.04ZM210.53,88.76l-.05-.04-.02.02.07.02ZM210.85,88.45l-.18-.07s.03.04.06.06c.03.02.06.03.09.04,0,0,.02-.02.03-.03ZM211.58,89.6c-.18-.19-.32-.32-.56-.32-.04,0-.08.06-.07.07.16.12.35.2.63.25ZM212.29,89.39c-.19-.13-.39-.17-.58-.19-.04.03-.19-.08-.17.02h.18c.19.06.38.21.57.17ZM212.18,89.1c-.26-.27-.46-.29-.67-.3.17.12.35.22.67.3ZM213.01,89.74l-.07-.02.05.04.02-.02ZM214.1,90.46l-.22-.06c-.1-.02-.21-.06-.29-.07-.07,0-.04.05.04.06.09.02.18.01.26.02l.21.04ZM214.58,90.85l-.19-.04h-.05s.06.01.06.01c.05,0,.18.09.18.02ZM215.16,90.5c-.1-.11-.29-.16-.43-.19-.15-.04-.08.06-.09.1l-.24-.03c-.33-.2-.46-.48-.91-.67l-.04-.04.02.04c.12.13.26.26.36.38.15.18.33.26.58.3l.23.03c.1.04.2.08.28.11.14.04.35.1.23-.02ZM216.1,91.03l-.21-.1h-.05s.06.01.06.01c.05.03.11.05.16.08.01,0,.02,0,.04,0ZM216.36,91.35h-.04s.05.03.05.03v-.03ZM217.24,91.27c-.12-.1-.22-.17-.32-.22-.06-.04-.11-.08-.16-.12-.1-.09-.2-.2-.31-.28-1.52-1.2-3.12-2.3-4.75-3.37-.2-.13-.4-.23-.58-.1,1.09.37,1.98,1.14,2.92,1.76.1.07.17.19.26.29h-.06s.06,0,.06,0c.88.38,1.65,1.08,2.44,1.68.05.06.11.11.18.14.1.06.25.21.31.21Z" class="cls-5"/>
        <polygon points="159.53 78.93 159.56 79.06 159.63 78.98 159.53 78.93" class="cls-5"/>
        <polygon points="161 78.61 160.92 78.68 161.01 78.74 161 78.61" class="cls-5"/>
        <polygon points="170.53 77.86 170.53 77.85 170.53 77.86 170.53 77.86" class="cls-5"/>
        <path d="M183.92,82.75c.02-.1.03-.21.04-.31-.07-.02-.14-.03-.21-.03l.18.34Z" class="cls-5"/>
      </g>
    </g>
  </g>
  <polygon points="148.61 5.87 417.41 221.17 7.41 221.17 148.61 5.87" class="cls-4"/>
</svg>